<svg xmlns="http://www.w3.org/2000/svg" width="800" height="333.333" viewBox="0 0 750 312.5"><defs><clipPath id="a" clipPathUnits="userSpaceOnUse"><path d="M0 250h600V0H0v250z"/></clipPath></defs><path d="M0 312.5h750V0H0v312.5z" fill="#262626"/><g clip-path="url(#a)" transform="matrix(1.25 0 0 -1.25 0 312.5)" fill="#a8e00f"><path d="M526.627 107.114c.278.004 1.945.05 2.565.05h.011c.972-.039 2.427-.767 2.465-2.217V99.33c-.102-.368.014-1.745-2.367-1.945-1.653 0-3.098.012-3.129.012-23.287-.012-22.454 22.54-22.454 22.54v40.232c0 1.234.994 2.27 2.223 2.27h5.261c1.229 0 2.297-1.036 2.297-2.266v-8.455h17.864c1.31 0 2.118-1.533 2.118-2.21v-5.654c-.045-.99-1.128-2.03-2.125-2.03-.559 0-14.73-.018-17.857-.018V120.29s-.709-13.216 13.128-13.175m-52.853-7.431c0-1.23-1.068-2.27-2.296-2.27h-5.263c-1.228 0-2.22 1.04-2.22 2.274v29.427s-.833 22.553 22.454 22.54c.03 0 8.35.013 10.003.013 2.382-.201 2.266-1.577 2.367-1.946v-5.614c-.04-1.45-1.492-2.181-2.464-2.22h-.01c-.623 0-9.165.046-9.442.05-13.837.04-13.129-13.175-13.129-13.175v-29.08zM350.68 106.37c.28.003 1.946.048 2.566.048h.01c.973-.037 2.427-.767 2.468-2.217v-5.616c-.106-.367.013-1.745-2.37-1.944-1.651 0-3.097.011-3.13.011-23.286-.012-22.453 22.54-22.453 22.54v40.232c0 1.234.997 2.271 2.223 2.271h5.262c1.229 0 2.299-1.037 2.299-2.266v-8.456h17.864c1.306 0 2.115-1.533 2.115-2.21v-5.652c-.044-.994-1.127-2.034-2.125-2.034-.558 0-14.731-.017-17.854-.017v-21.517s-.711-13.213 13.125-13.174m-82.418.899c-.09.008-24.354-.03-24.354-.03-5.494 0-5.943 2.288-5.943 9.359v.29c3.197.002 12.889.013 20.9.013 9.613.034 15.06 5.747 15.329 16.1l-.011 3.137c0 9.742-5.872 15.563-15.735 15.563H248.23l-4.435-.015c-10.093-.077-15.193-5.384-15.577-16.23l-.05-18.852c0-9.505 1.868-19.225 15.739-19.225h24.335c1.714 0 2.686.907 2.686 2.496v5.166c0 .812-.346 2.178-2.667 2.228M242.96 141.78l17.229.034c3.11-.383 4.224-1.978 4.224-5.682v-3.768c-.226-2.793-.487-5.668-5.666-5.668H238v9.335c.08 5.433 2.785 5.6 4.96 5.749m215.643-9.312c0 9.516-1.873 19.23-15.737 19.23h-14.699c-10.09-.078-15.192-5.383-15.58-16.23V112.94c0-9.75 5.884-15.563 15.741-15.563h8.66v-.016h6.036c10.092.075 15.193 5.384 15.58 16.23v18.876zm-14.745-25.204l-6.88-.107h-8.65c-4.462 0-5.954 1.454-5.954 5.788v23.098c.078 5.437 2.78 5.605 4.959 5.752l15.542.034c5.487 0 5.955-2.278 5.955-9.346l-.008-19.47c-.08-5.432-2.784-5.601-4.963-5.75m-220.175 25.589c0 9.596-1.88 19.394-15.857 19.394H187.13v8.545c0 1.241-1.056 2.29-2.298 2.29h-5.296c-1.246 0-2.297-1.049-2.297-2.293V113.16c0-9.833 5.982-15.694 15.909-15.694h14.956c10.092.077 15.195 5.384 15.579 16.231v19.156zM208.94 107.37l-6.88-.034v-.01h-8.911c-4.485 0-5.993 1.466-5.993 5.838l-.022 29.13h20.693c5.529 0 5.96-2.298 5.96-9.426l.037-19.748c-.08-5.434-2.705-5.602-4.884-5.75m113.537 16.541v8.563c0 9.505-1.87 19.225-15.738 19.225h-24.337c-1.716 0-2.688-.907-2.688-2.497v-5.165c0-.812.35-2.18 2.67-2.228.088-.008 24.355.031 24.355.031 5.49 0 5.943-2.29 5.943-9.358l-.002-.292c-3.197-.003-12.888-.01-20.898-.01-9.613-.04-15.063-5.75-15.331-16.105l.013-3.135c0-9.743 5.872-15.56 15.732-15.56h8.678l.026-.028h6.036c10.092.078 15.193 5.383 15.582 16.231v10.328h-.041zm-14.706-16.653l-16.95-.036c-3.392.303-4.588 1.878-4.588 5.722v3.771c.224 2.791.485 5.665 5.663 5.665h20.766l.07-9.373c-.078-5.436-2.781-5.602-4.961-5.749m99.427 25.38c0 9.88-1.91 19.03-15.738 19.03h-14.578c-9.849 0-15.729-5.872-15.729-15.69l-.045-46.781c0-1.41.694-2.278 1.817-2.278h5.71c1.212 0 2.273 1.067 2.273 2.268l.006 8.22h20.517c13.831 0 15.74 9.152 15.74 19.032v4.246l.027 11.953zm-11.117-24.195c-.898-.888-2.409-1.328-4.65-1.328h-20.513l.018 28.864c0 4.33 1.555 5.88 5.946 5.88h16.245c1.344-.175 2.327-.581 2.98-1.226 1.304-1.34 1.295-3.733 1.255-6.513l-.025-19.164c.038-2.781.046-5.176-1.256-6.513m-250.46 16.121c0 20.896-16.999 37.896-37.896 37.896-20.895 0-37.894-17-37.894-37.897a37.748 37.748 0 0110.271-25.932l.002.002a2.348 2.348 0 013.318-.098l4.085 3.843a2.35 2.35 0 01.108 3.31l.004.004a27.486 27.486 0 00-7.475 18.871c0 15.208 12.373 27.582 27.581 27.582 15.21 0 27.583-12.374 27.583-27.582a27.474 27.474 0 00-7.476-18.87l.01-.01a2.346 2.346 0 01.111-3.305l4.086-3.843a2.347 2.347 0 013.318.1l-.004.002a37.75 37.75 0 0110.268 25.926"/><path d="M159.936 124.745c0 5.163-.773 10.255-2.303 15.143h.002c-.001.003-.005.008-.005.012l-.004.016a2.352 2.352 0 01-2.93 1.517l-5.357-1.665a2.346 2.346 0 01-1.547-2.933l-.005-.004a40.548 40.548 0 001.838-12.086 40.25 40.25 0 00-5.703-20.665l.006-.006a2.347 2.347 0 01.815-3.208l4.81-2.885a2.348 2.348 0 013.22.805 50.574 50.574 0 017.164 25.96M71.53 104.08a40.254 40.254 0 00-5.703 20.664c0 4.125.62 8.19 1.838 12.084h.002v.004a2.349 2.349 0 01-1.545 2.935l-5.359 1.67a2.348 2.348 0 01-2.929-1.525l-.009.005a50.731 50.731 0 01-2.313-15.173 50.603 50.603 0 017.165-25.959l.008.004a2.346 2.346 0 013.212-.794l4.81 2.885a2.346 2.346 0 01.82 3.197l.002.002zm467.816-4.895c-2.234 0-3.63 1.47-3.63 3.77 0 2.286 1.396 3.763 3.63 3.763 2.195 0 3.617-1.477 3.617-3.762 0-2.301-1.422-3.771-3.617-3.771m0 8.88c-2.854 0-5.144-2.28-5.144-5.11a5.122 5.122 0 015.144-5.144 5.133 5.133 0 015.142 5.145c0 2.83-2.308 5.109-5.142 5.109"/><path d="M539.748 103.123h-1.359v1.34h1.103c.483 0 1.188.049 1.188-.614 0-.612-.375-.743-.932-.726m-.02 2.104h-2.37v-4.798h1.031v1.939h.81l1.106-1.939h1.18l-1.18 1.939c.854.078 1.326.444 1.326 1.355 0 1.155-.612 1.504-1.903 1.504"/></g></svg>