<svg xmlns="http://www.w3.org/2000/svg" width="161.035" height="157.058" viewBox="0 0 150.97 147.242"><path d="M75.485 0C33.801 0 0 33.794 0 75.485c0 33.35 21.629 61.645 51.621 71.626 3.773.699 5.158-1.637 5.158-3.631 0-1.799-.07-7.746-.103-14.054-21 4.566-25.431-8.906-25.431-8.906-3.434-8.724-8.381-11.045-8.381-11.045-6.849-4.685.516-4.589.516-4.589 7.58.533 11.571 7.78 11.571 7.78 6.733 11.539 17.659 8.203 21.967 6.274.677-4.878 2.633-8.209 4.792-10.094-16.766-1.907-34.391-8.381-34.391-37.305 0-8.24 2.949-14.975 7.777-20.261-.783-1.901-3.367-9.579.732-19.976 0 0 6.34-2.028 20.763 7.738 6.022-1.672 12.479-2.51 18.894-2.54 6.415.03 12.878.868 18.91 2.54 14.408-9.766 20.738-7.738 20.738-7.738 4.108 10.397 1.525 18.075.74 19.976 4.84 5.286 7.768 12.021 7.768 20.261 0 28.994-17.659 35.376-34.467 37.245 2.707 2.343 5.12 6.936 5.12 13.979 0 10.1-.086 18.229-.086 20.715 0 2.01 1.357 4.362 5.183 3.622 29.976-9.992 51.579-38.277 51.579-71.617C150.97 33.794 117.174 0 75.485 0" fill="#323131" fill-rule="evenodd"/><path d="M28.59 108.379c-.166.376-.756.489-1.293.231-.549-.247-.855-.759-.678-1.135.163-.385.753-.492 1.3-.235.548.246.86.763.672 1.139m3.057 3.411c-.36.333-1.065.178-1.54-.35-.496-.525-.587-1.23-.222-1.568.371-.334 1.054-.177 1.547.349.495.532.592 1.23.215 1.569m2.976 4.347c-.462.322-1.22.02-1.687-.652-.463-.671-.463-1.476.011-1.798.468-.323 1.214-.032 1.688.633.46.683.46 1.488-.012 1.817m4.078 4.2c-.414.456-1.295.334-1.94-.289-.66-.609-.844-1.472-.43-1.929.42-.457 1.306-.328 1.956.29.655.607.855 1.477.414 1.928m5.625 2.439c-.183.591-1.032.859-1.887.607-.853-.258-1.412-.95-1.24-1.547.178-.596 1.03-.875 1.892-.606.852.257 1.412.945 1.235 1.546m6.178.451c.02.623-.704 1.14-1.602 1.15-.902.022-1.633-.483-1.643-1.096 0-.629.71-1.139 1.61-1.155.898-.017 1.635.484 1.635 1.101m5.748-.977c.107.606-.517 1.23-1.408 1.396-.876.161-1.687-.215-1.799-.816-.108-.623.525-1.246 1.402-1.408.892-.155 1.691.21 1.805.828" fill="#323131"/></svg>