<svg xmlns="http://www.w3.org/2000/svg" height="180" width="193.95"><path d="M166.679 0H13.286C5.956 0 0 5.81 0 12.974V167.01C0 174.181 5.956 180 13.286 180H166.68c7.342 0 13.324-5.819 13.324-12.989V12.974C180.002 5.81 174.02 0 166.678 0" fill="#0977b6"/><path d="M40.043 24.781c8.535 0 15.47 6.938 15.47 15.475 0 8.545-6.935 15.484-15.47 15.484-8.557 0-15.483-6.939-15.483-15.484 0-8.537 6.926-15.475 15.483-15.475M26.687 67.483h26.7v85.9h-26.7v-85.9m43.443 0h25.611v11.736h.355c3.562-6.753 12.272-13.874 25.26-13.874 27.035 0 32.027 17.792 32.027 40.92v47.119h-26.68V111.61c0-9.966-.183-22.779-13.873-22.779-13.893 0-16.02 10.853-16.02 22.058v42.495H70.13V67.483" fill="#fff"/><path d="M189.086 149.48h-.842v-1.708h1.067c.551 0 1.183.09 1.183.811 0 .83-.636.897-1.408.897zm.838.506c.851-.105 1.296-.572 1.296-1.361 0-.961-.58-1.428-1.775-1.428h-1.925v5.054h.724v-2.2h.893l.02.027 1.384 2.173h.775l-1.489-2.253.097-.012" fill="#231f20"/><path d="M189.169 153.884c-2.29 0-4.084-1.806-4.084-4.155 0-2.343 1.794-4.15 4.084-4.15 2.287 0 4.081 1.807 4.081 4.15 0 2.349-1.794 4.155-4.081 4.155zm0-8.934c-2.684 0-4.788 2.101-4.788 4.778 0 2.686 2.104 4.78 4.788 4.78 2.681 0 4.781-2.094 4.781-4.78 0-2.677-2.1-4.778-4.781-4.778" fill="#231f20"/></svg>