<svg xmlns="http://www.w3.org/2000/svg" height="192" width="192"><path d="M192.001 96c0 53.02-42.981 96-96 96C42.98 192 0 149.02 0 96 0 42.981 42.981 0 96 0c53.02 0 96.001 42.981 96.001 96" fill="#fff"/><path d="M95.884 7.237C46.862 7.237 7.12 46.977 7.12 96c0 37.604 23.396 69.723 56.415 82.656-.776-7.023-1.477-17.795.309-25.461 1.612-6.928 10.408-44.122 10.408-44.122s-2.655-5.317-2.655-13.179c0-12.342 7.154-21.557 16.06-21.557 7.574 0 11.232 5.686 11.232 12.504 0 7.616-4.849 19.002-7.351 29.554-2.092 8.835 4.43 16.04 13.144 16.04 15.776 0 27.903-16.635 27.903-40.647 0-21.253-15.271-36.112-37.077-36.112-25.255 0-40.08 18.943-40.08 38.52 0 7.63 2.939 15.81 6.606 20.257.724.879.831 1.65.616 2.546-.674 2.804-2.172 8.833-2.466 10.066-.388 1.625-1.287 1.97-2.968 1.188-11.087-5.161-18.018-21.369-18.018-34.388 0-28 20.344-53.714 58.65-53.714 30.791 0 54.72 21.941 54.72 51.265 0 30.591-19.288 55.21-46.06 55.21-8.994 0-17.45-4.671-20.344-10.191 0 0-4.451 16.948-5.53 21.1-2.005 7.71-7.414 17.374-11.032 23.27a88.74 88.74 0 0026.28 3.96c49.024 0 88.765-39.743 88.765-88.765 0-49.023-39.741-88.763-88.764-88.763" fill="#bd1e24"/></svg>