<svg xmlns="http://www.w3.org/2000/svg" width="496.967" height="1141.565"><g fill-rule="evenodd"><path d="M496.423 266.168L.55 269.164l12.906 134.123c.948 2.341 39.474 97.294 63.498 120.557 27.275 26.41 59.598 47.656 92.883 65.916 55.773 30.597 114.631 58.315 176.776 71.91 21.974 4.807 47.052-6.558 67.416 2.996 19.895 9.335 44.184 48.223 44.826 49.254l10.828-129.057c-.456-.076-37.376-6.26-54.156-13.08-20.276-8.241-26.482-11.842-36.704-21.723-17.678-17.09-18.337-49.995-39.7-62.171C261.52 443.654 205.79 348.565 205.79 348.565s61.104 23.005 92.883 29.963c45.199 9.895 94.448.38 137.826 16.478 17.08 6.338 44.777 29.732 46.496 31.191zM29.454 569.561l2.807 29.166c3.112 13.005 12.249 104.437 52.184 145.338 26.736 27.382 59.738 29.841 84.267 79.775 15.553 31.661-107.734-63.82-89.51-46.068 16.744 16.312 19.53 44.708 28.462 53.182 34.929 33.142-48.187-7.135-56.305-33.737l4.824 50.13c1.091 1.567 19.577 27.92 31.258 31.548 33.386 10.37 67.68-4.66 104.867 1.498s82.466 13.943 115.355 37.453c15.075 10.775 75.861 57.46 30.21 41.857-16.28-5.564 14.464 32.209 25.22 45.034 20.846 24.854 65.966 60.787 66.242 61.007l11.973-142.693c-.343-.21-80.852-49.63-115.668-81.61-21.944-20.155-32.221-52.258-56.928-68.912-43.37-19.659-99.938-24.338-132.582-53.932-20.99-19.028-41.222-37.314-42.697-74.905-.832-21.213 104.749 78.258 65.917 21.722-38.83-56.536-129.896-95.75-129.896-95.853zm32.73 340.176l22.26 231.328h338.573l.978-11.655c-.437-.128-47.238-13.806-69.892-22.802-72.23-28.684-149.224-54.295-208.237-104.868-19.57-16.772-27.712-43.753-44.943-62.921-11.913-13.254-38.099-28.706-38.738-29.082z" stroke="#000"/><path d="M326.765 265.165s-7.614-111.92 22.471-154.305c29.993-42.257 137.826-71.91 137.826-71.91L466.09 0S343.13 36.606 308.788 85.392c-35.775 50.822-28.464 184.267-28.464 184.267s46.442 5.993 46.442-4.494zm-157.917 2.996s7.613-111.919-22.472-154.305C116.383 71.6 8.55 41.947 8.55 41.947l20.974-38.95s122.959 36.605 157.301 85.391C222.6 139.21 215.29 272.656 215.29 272.656s-46.441 5.992-46.441-4.495z"/></g></svg>