<svg xmlns="http://www.w3.org/2000/svg" width="544.254" height="307.34"><defs><linearGradient x1="0" y1="0" x2="1" y2="0" gradientUnits="userSpaceOnUse" gradientTransform="matrix(0 -108.88672 -108.88672 0 283.85 414.841)" spreadMethod="pad" id="a"><stop offset="0" stop-color="#f57815"/><stop offset=".266" stop-color="#f57815"/><stop offset="1" stop-color="#ef381f"/></linearGradient><linearGradient x1="0" y1="0" x2="1" y2="0" gradientUnits="userSpaceOnUse" gradientTransform="rotate(-90 401.992 141.813) scale(189.08395)" spreadMethod="pad" id="b"><stop offset="0" stop-color="#f57815"/><stop offset=".266" stop-color="#f57815"/><stop offset="1" stop-color="#ef381f"/></linearGradient><linearGradient x1="0" y1="0" x2="1" y2="0" gradientUnits="userSpaceOnUse" gradientTransform="matrix(0 -189.08395 -189.08395 0 241.885 543.88)" spreadMethod="pad" id="c"><stop offset="0" stop-color="#f57815"/><stop offset=".266" stop-color="#f57815"/><stop offset="1" stop-color="#ef381f"/></linearGradient><linearGradient x1="0" y1="0" x2="1" y2="0" gradientUnits="userSpaceOnUse" gradientTransform="matrix(0 -148.92578 -148.92578 0 283.85 543.88)" spreadMethod="pad" id="d"><stop offset="0" stop-color="#f57815"/><stop offset=".266" stop-color="#f57815"/><stop offset="1" stop-color="#ef381f"/></linearGradient><linearGradient x1="0" y1="0" x2="1" y2="0" gradientUnits="userSpaceOnUse" gradientTransform="matrix(0 -117.67578 -117.67578 0 283.85 419.235)" spreadMethod="pad" id="e"><stop offset="0" stop-color="#f57815"/><stop offset=".266" stop-color="#f57815"/><stop offset="1" stop-color="#ef381f"/></linearGradient><linearGradient x1="0" y1="0" x2="1" y2="0" gradientUnits="userSpaceOnUse" gradientTransform="matrix(0 -189.08395 -189.08395 0 209.736 543.88)" spreadMethod="pad" id="f"><stop offset="0" stop-color="#f57815"/><stop offset=".266" stop-color="#f57815"/><stop offset="1" stop-color="#ef381f"/></linearGradient><linearGradient x1="0" y1="0" x2="1" y2="0" gradientUnits="userSpaceOnUse" gradientTransform="matrix(0 -189.08395 -189.08395 0 205.887 543.88)" spreadMethod="pad" id="g"><stop offset="0" stop-color="#f57815"/><stop offset=".266" stop-color="#f57815"/><stop offset="1" stop-color="#ef381f"/></linearGradient><linearGradient x1="0" y1="0" x2="1" y2="0" gradientUnits="userSpaceOnUse" gradientTransform="matrix(0 -189.08395 -189.08395 0 228.053 543.88)" spreadMethod="pad" id="h"><stop offset="0" stop-color="#f57815"/><stop offset=".266" stop-color="#f57815"/><stop offset="1" stop-color="#ef381f"/></linearGradient><linearGradient x1="0" y1="0" x2="1" y2="0" gradientUnits="userSpaceOnUse" gradientTransform="rotate(-90 383.84 159.965) scale(189.08395)" spreadMethod="pad" id="i"><stop offset="0" stop-color="#f57815"/><stop offset=".266" stop-color="#f57815"/><stop offset="1" stop-color="#ef381f"/></linearGradient><linearGradient x1="0" y1="0" x2="1" y2="0" gradientUnits="userSpaceOnUse" gradientTransform="matrix(0 -189.08395 -189.08395 0 135.576 543.88)" spreadMethod="pad" id="j"><stop offset="0" stop-color="#f57815"/><stop offset=".266" stop-color="#f57815"/><stop offset="1" stop-color="#ef381f"/></linearGradient><linearGradient x1="0" y1="0" x2="1" y2="0" gradientUnits="userSpaceOnUse" gradientTransform="matrix(0 -189.08395 -189.08395 0 278.445 543.88)" spreadMethod="pad" id="k"><stop offset="0" stop-color="#f57815"/><stop offset=".266" stop-color="#f57815"/><stop offset="1" stop-color="#ef381f"/></linearGradient><linearGradient x1="0" y1="0" x2="1" y2="0" gradientUnits="userSpaceOnUse" gradientTransform="matrix(0 -189.08395 -189.08395 0 152.942 543.88)" spreadMethod="pad" id="l"><stop offset="0" stop-color="#f57815"/><stop offset=".266" stop-color="#f57815"/><stop offset="1" stop-color="#ef381f"/></linearGradient><linearGradient x1="0" y1="0" x2="1" y2="0" gradientUnits="userSpaceOnUse" gradientTransform="matrix(0 -189.08395 -189.08395 0 170.45 543.88)" spreadMethod="pad" id="m"><stop offset="0" stop-color="#f57815"/><stop offset=".266" stop-color="#f57815"/><stop offset="1" stop-color="#ef381f"/></linearGradient><linearGradient x1="0" y1="0" x2="1" y2="0" gradientUnits="userSpaceOnUse" gradientTransform="matrix(0 -189.08395 -189.08395 0 187.828 543.88)" spreadMethod="pad" id="n"><stop offset="0" stop-color="#f57815"/><stop offset=".266" stop-color="#f57815"/><stop offset="1" stop-color="#ef381f"/></linearGradient><linearGradient x1="0" y1="0" x2="1" y2="0" gradientUnits="userSpaceOnUse" gradientTransform="matrix(0 -70.3125 -70.3125 0 155.625 393.551)" spreadMethod="pad" id="o"><stop offset="0" stop-color="#f57815"/><stop offset=".266" stop-color="#f57815"/><stop offset="1" stop-color="#ef381f"/></linearGradient><linearGradient x1="0" y1="0" x2="1" y2="0" gradientUnits="userSpaceOnUse" gradientTransform="matrix(0 -189.08395 -189.08395 0 296.71 543.88)" spreadMethod="pad" id="p"><stop offset="0" stop-color="#f57815"/><stop offset=".266" stop-color="#f57815"/><stop offset="1" stop-color="#ef381f"/></linearGradient><linearGradient x1="0" y1="0" x2="1" y2="0" gradientUnits="userSpaceOnUse" gradientTransform="matrix(0 -189.08395 -189.08395 0 85.16 543.88)" spreadMethod="pad" id="q"><stop offset="0" stop-color="#f57815"/><stop offset=".266" stop-color="#f57815"/><stop offset="1" stop-color="#ef381f"/></linearGradient><linearGradient x1="0" y1="0" x2="1" y2="0" gradientUnits="userSpaceOnUse" gradientTransform="matrix(0 -189.08395 -189.08395 0 101.26 543.88)" spreadMethod="pad" id="r"><stop offset="0" stop-color="#f57815"/><stop offset=".266" stop-color="#f57815"/><stop offset="1" stop-color="#ef381f"/></linearGradient><linearGradient x1="0" y1="0" x2="1" y2="0" gradientUnits="userSpaceOnUse" gradientTransform="matrix(0 -189.08395 -189.08395 0 118.347 543.88)" spreadMethod="pad" id="s"><stop offset="0" stop-color="#f57815"/><stop offset=".266" stop-color="#f57815"/><stop offset="1" stop-color="#ef381f"/></linearGradient><linearGradient x1="0" y1="0" x2="1" y2="0" gradientUnits="userSpaceOnUse" gradientTransform="rotate(-90 477.716 66.087) scale(188.82059)" spreadMethod="pad" id="t"><stop offset="0" stop-color="#f57815"/><stop offset="0" stop-color="#f57815"/><stop offset="0" stop-color="#f57815"/><stop offset=".263" stop-color="#f57815"/><stop offset="1" stop-color="#ef381f"/></linearGradient><clipPath clipPathUnits="userSpaceOnUse" id="u"><path d="M0 841.89h595.28V0H0v841.89z"/></clipPath></defs><path d="M283.848 360.384l.001.009v.005l-.001-.014z" fill="url(#a)" transform="matrix(1.25 0 0 -1.25 -99.924 679.851)"/><path d="M254.802 497.781l-2.304-92.95 2.305-44.726c.054-2.849 2.319-5.099 5.154-5.099 2.827 0 5.091 2.25 5.153 5.131v-.037l2.582 44.725-2.582 92.965c-.062 2.871-2.326 5.126-5.153 5.126-2.835 0-5.1-2.257-5.155-5.135" fill="url(#b)" transform="matrix(1.25 0 0 -1.25 -99.924 679.851)"/><path d="M236.946 501.309l-2.525-96.474 2.527-45.009c.059-2.643 2.16-4.737 4.782-4.737 2.612 0 4.711 2.094 4.782 4.76v-.032l2.838 45.018-2.838 96.479c-.071 2.665-2.17 4.752-4.782 4.752-2.622 0-4.723-2.09-4.784-4.757" fill="url(#c)" transform="matrix(1.25 0 0 -1.25 -99.924 679.851)"/><path d="M283.85 360.413l-.001-.015.001.008v.007" fill="url(#d)" transform="matrix(1.25 0 0 -1.25 -99.924 679.851)"/><path d="M283.848 360.383l.001.01v.004l-.001-.014z" fill="url(#e)" transform="matrix(1.25 0 0 -1.25 -99.924 679.851)"/><path d="M209.735 359.113l.002.027-.002-.027z" fill="url(#f)" transform="matrix(1.25 0 0 -1.25 -99.924 679.851)"/><path d="M201.655 500.62l-2.963-95.771 2.966-45.727c.075-2.227 1.85-3.987 4.039-3.987 2.177 0 3.95 1.755 4.04 4.005l3.344 45.709-3.344 95.773c-.089 2.25-1.863 4.012-4.04 4.012-2.189 0-3.964-1.764-4.042-4.014" fill="url(#g)" transform="matrix(1.25 0 0 -1.25 -99.924 679.851)"/><path d="M228.053 359.42l-.001-.023.002.026-.001-.003" fill="url(#h)" transform="matrix(1.25 0 0 -1.25 -99.924 679.851)"/><path d="M219.231 503.842l-2.744-98.998 2.747-45.443c.068-2.433 2.005-4.357 4.41-4.357 2.395 0 4.33 1.923 4.409 4.376l3.092 45.42-3.091 99.004c-.079 2.46-2.014 4.385-4.41 4.385-2.405 0-4.342-1.928-4.413-4.387" fill="url(#i)" transform="matrix(1.25 0 0 -1.25 -99.924 679.851)"/><path d="M132.761 452.559l-3.841-47.669 3.841-46.116c.107-1.426 1.207-2.505 2.557-2.505 1.332 0 2.429 1.079 2.55 2.505l4.363 46.116-4.363 47.678c-.121 1.424-1.218 2.501-2.55 2.501-1.35 0-2.45-1.079-2.557-2.51" fill="url(#j)" transform="matrix(1.25 0 0 -1.25 -99.924 679.851)"/><path d="M275.347 520.044a5.624 5.624 0 01-2.549-4.612l-.02-1.043-2.066-109.536c0-.066 2.086-44.465 2.086-44.465.001-.063.009-.126.013-.188a5.549 5.549 0 011.286-3.285c1.017-1.219 2.54-2.001 4.226-2.001 1.499 0 2.867.617 3.867 1.615a5.622 5.622 0 011.66 3.884l.231 4.395 2.096 40.01-2.327 110.618a5.628 5.628 0 01-2.474 4.561 5.428 5.428 0 01-3.053.943 5.415 5.415 0 01-2.976-.896" fill="url(#k)" transform="matrix(1.25 0 0 -1.25 -99.924 679.851)"/><path d="M149.776 449.104l-3.625-44.218 3.625-46.496c.098-1.638 1.355-2.881 2.924-2.881 1.554 0 2.811 1.242 2.925 2.883l4.107 46.494-4.107 44.236c-.112 1.63-1.37 2.87-2.925 2.87-1.569 0-2.826-1.241-2.924-2.888" fill="url(#l)" transform="matrix(1.25 0 0 -1.25 -99.924 679.851)"/><path d="M166.93 476.81l-3.404-71.942 3.404-46.492c.089-1.815 1.538-3.25 3.298-3.25 1.744 0 3.191 1.435 3.295 3.26v-.014l3.851 46.496-3.851 71.945c-.104 1.829-1.551 3.26-3.295 3.26-1.76 0-3.209-1.434-3.298-3.263" fill="url(#m)" transform="matrix(1.25 0 0 -1.25 -99.924 679.851)"/><path d="M183.95 493.012l-3.181-88.395 3.185-46.204c.082-2.021 1.693-3.617 3.668-3.617 1.957 0 3.566 1.59 3.665 3.624l3.601 46.197-3.6 88.395c-.094 2.039-1.705 3.635-3.666 3.635-1.975 0-3.586-1.596-3.672-3.635m7.338-134.581" fill="url(#n)" transform="matrix(1.25 0 0 -1.25 -99.924 679.851)"/><path d="M155.625 358.392v-.006l.001.009-.001-.003" fill="url(#o)" transform="matrix(1.25 0 0 -1.25 -99.924 679.851)"/><path d="M292.89 529.987a5.98 5.98 0 01-2.18-4.536l-.013-.608-2.405-120.036 1.227-22.189 1.192-21.594c.042-3.197 2.686-5.835 5.9-5.835 3.203 0 5.847 2.638 5.892 5.881v-.051l2.626 43.788v.001l-2.626 120.652a5.977 5.977 0 01-2.892 5.026 5.774 5.774 0 01-3 .847 5.833 5.833 0 01-3.721-1.346" fill="url(#p)" transform="matrix(1.25 0 0 -1.25 -99.924 679.851)"/><path d="M83.122 429.084l-3.183-24.18 3.183-23.768c.12-1.002.838-1.702 1.746-1.702.883 0 1.598.694 1.743 1.693l3.77 23.777-3.77 24.189c-.144.997-.86 1.695-1.743 1.695-.908 0-1.626-.702-1.746-1.704" fill="url(#q)" transform="matrix(1.25 0 0 -1.25 -99.924 679.851)"/><path d="M99.156 444.003l-4.282-39.099 4.282-38.238c.123-1.023.885-1.765 1.81-1.765.918 0 1.66.723 1.807 1.756l4.872 38.247-4.87 39.101c-.149 1.039-.891 1.758-1.809 1.758-.925 0-1.687-.74-1.81-1.76" fill="url(#r)" transform="matrix(1.25 0 0 -1.25 -99.924 679.851)"/><path d="M115.888 451.292l-4.063-46.392 4.063-44.699c.115-1.243 1.033-2.141 2.183-2.141 1.13 0 2.045.898 2.179 2.132l4.618 44.708-4.615 46.394c-.137 1.24-1.052 2.136-2.182 2.136-1.15 0-2.068-.899-2.183-2.138" fill="url(#s)" transform="matrix(1.25 0 0 -1.25 -99.924 679.851)"/><path d="M312.711 537.481c-4.043-1.567-5.115-3.171-5.154-6.297V361.211c.042-3.278 2.586-5.825 5.785-6.145.136-.014 148.449 0 148.449 0 29.577 0 53.551 23.71 53.551 53.29 0 29.581-23.974 53.558-53.551 53.558a53.493 53.493 0 01-20.714-4.159c-4.263 48.263-44.735 86.126-94.106 86.126-12.082 0-23.858-2.375-34.26-6.4" fill="url(#t)" transform="matrix(1.25 0 0 -1.25 -99.924 679.851)"/><g clip-path="url(#u)" transform="matrix(1.25 0 0 -1.25 -99.924 679.851)"><path d="M469.83 306.322h-3.896v24.209h4.186c8.363 0 11.815-4.01 11.815-12.105 0-7.241-3.784-12.104-12.105-12.104m.575 31.907h-12.39v-39.6h11.815c10.198 0 20.255 5.887 20.255 19.797 0 14.487-8.363 19.803-19.68 19.803m-30.212-22.234c0-6.332-3.1-10.24-8.138-10.24-5.039 0-8.093 4.018-8.093 10.35v22.124h-7.92v-22.234c0-11.537 6.452-17.986 16.013-17.986 10.066 0 16.066 6.624 16.066 18.096v22.124h-7.928v-22.234zm-49.153-10.122c-6.397 0-9.055 5.483-9.055 12.553 0 7.075 2.658 12.557 9.055 12.557 6.387 0 9.041-5.482 9.041-12.557 0-7.07-2.654-12.553-9.04-12.553m0 32.976c-10.81 0-17.197-8.368-17.197-20.423 0-12.053 6.387-20.417 17.196-20.417 10.802 0 17.198 8.364 17.198 20.417 0 12.055-6.396 20.423-17.198 20.423m-36.742-.62h-7.924v-39.6h23.81v7.807h-15.886v31.793zm-29.373-7.246c3.562 0 5.828-1.583 7.241-4.296l7.347 3.397c-2.487 5.146-7.01 8.765-14.477 8.765-10.347 0-17.587-8.368-17.587-20.423 0-12.498 6.946-20.417 17.306-20.417 7.185 0 11.934 3.337 14.651 8.94l-6.677 3.964c-2.09-3.512-4.186-5.04-7.749-5.04-5.943 0-9.396 5.432-9.396 12.553 0 7.352 3.406 12.557 9.341 12.557m-44.745-24.661h-3.906v24.209h4.192c8.371 0 11.822-4.01 11.822-12.105 0-7.241-3.793-12.104-12.108-12.104m.562 31.907H268.36v-39.6h11.82c10.18 0 20.254 5.887 20.254 19.797 0 14.487-8.376 19.803-19.692 19.803m-30.37-16.747c0-2.205.11-7.182.11-8.657-.506 1.018-1.809 3.005-2.768 4.476l-14.034 20.928h-7.579v-39.6h7.81v17.424c0 2.205-.117 7.183-.117 8.656.514-1.018 1.814-2.996 2.77-4.473l14.54-21.606h7.076v39.599h-7.808v-16.747zm-42.088-5.487c0-6.332-3.11-10.24-8.14-10.24-5.036 0-8.09 4.018-8.09 10.35v22.124h-7.92v-22.234c0-11.537 6.451-17.986 16.01-17.986 10.064 0 16.06 6.624 16.06 18.096v22.124h-7.92v-22.234zm-49.15-10.122c-6.395 0-9.054 5.483-9.054 12.553 0 7.075 2.66 12.557 9.054 12.557 6.392 0 9.047-5.482 9.047-12.557 0-7.07-2.655-12.553-9.047-12.553m0 32.976c-10.803 0-17.195-8.368-17.195-20.423 0-12.053 6.392-20.417 17.195-20.417 10.8 0 17.195 8.364 17.195 20.417 0 12.055-6.395 20.423-17.195 20.423m-36.438-16.006c-6.28 1.476-7.974 2.265-7.974 4.752 0 1.75 1.412 3.564 5.653 3.564 3.622 0 6.451-1.477 8.994-4.075l5.718 5.544c-3.737 3.898-8.26 6.22-14.426 6.22-7.809 0-14.14-4.415-14.14-11.601 0-7.8 5.09-10.122 12.386-11.812 7.467-1.7 8.824-2.837 8.824-5.381 0-2.998-2.21-4.3-6.904-4.3-3.789 0-7.348 1.302-10.125 4.53l-5.713-5.092c3-4.412 8.772-7.183 15.386-7.183 10.804 0 15.558 5.088 15.558 12.613 0 8.6-6.957 10.748-13.237 12.22" fill="#ef381f"/></g></svg>