<svg xmlns="http://www.w3.org/2000/svg" height="26.613" width="15.293"><defs><clipPath id="a" clipPathUnits="userSpaceOnUse"><path d="M0 199.586V0h114.707v199.586z"/></clipPath></defs><g clip-path="url(#a)" transform="matrix(.13333 0 0 -.13333 0 26.613)"><path d="M105.105 40.164c-3.71-1.766-10.808-3.309-16.101-3.445-15.977-.43-19.074 11.218-19.211 19.68v62.128h40.078v30.215h-39.93v50.844H40.703c-.48 0-1.316-.426-1.433-1.496-1.711-15.559-8.997-42.871-39.27-53.781v-25.782h20.195V53.312c0-22.328 16.473-54.042 59.953-53.3 14.668.254 30.957 6.394 34.559 11.687l-9.602 28.465" fill="#32405a"/></g></svg>