<svg xmlns="http://www.w3.org/2000/svg" height="296.24" width="364.52"><defs><clipPath id="a" clipPathUnits="userSpaceOnUse"><path d="M0 2221.78V0h2733.9v2221.78z"/></clipPath></defs><g clip-path="url(#a)" transform="matrix(.13333 0 0 -.13333 0 296.24)"><path d="M2733.9 1958.77c-100.59-44.61-208.69-74.76-322.15-88.32 115.81 69.42 204.74 179.34 246.62 310.32-108.37-64.28-228.41-110.96-356.17-136.12-102.32 109.01-248.09 177.13-409.41 177.13-309.77 0-560.91-251.13-560.91-560.88 0-43.96 4.97-86.77 14.53-127.82-466.156 23.39-879.445 246.69-1156.09 586.03-48.281-82.84-75.933-179.18-75.933-281.98 0-194.59 99.019-366.27 249.519-466.85-91.941 2.91-178.426 28.14-254.051 70.15-.043-2.34-.05-4.68-.05-7.05 0-271.76 193.34-498.458 449.929-549.982-47.066-12.816-96.621-19.668-147.769-19.668-36.145 0-71.281 3.508-105.527 10.059 71.374-222.84 278.511-385 523.953-389.527C638.43 333.832 396.582 244.16 133.801 244.16c-45.274 0-89.922 2.649-133.801 7.828C248.223 92.852 543.047 0 859.797 0 1891.48 0 2455.64 854.672 2455.64 1595.86c0 24.32-.54 48.51-1.62 72.56 109.58 79.08 204.68 177.87 279.88 290.35" fill="#6aa9e0"/></g></svg>