<?xml version="1.0" encoding="UTF-8" standalone="no"?>
<!-- Created with Inkscape (http://www.inkscape.org/) -->

<svg
   xmlns:dc="http://purl.org/dc/elements/1.1/"
   xmlns:cc="http://creativecommons.org/ns#"
   xmlns:rdf="http://www.w3.org/1999/02/22-rdf-syntax-ns#"
   xmlns:svg="http://www.w3.org/2000/svg"
   xmlns="http://www.w3.org/2000/svg"
   xmlns:sodipodi="http://sodipodi.sourceforge.net/DTD/sodipodi-0.dtd"
   xmlns:inkscape="http://www.inkscape.org/namespaces/inkscape"
   width="211.66667mm"
   height="88.194443mm"
   viewBox="0 0 750.00002 312.49999"
   id="svg2"
   version="1.1"
   inkscape:version="0.91 r13725"
   sodipodi:docname="beatport.svg">
  <defs
     id="defs4">
    <clipPath
       id="clipPath4152"
       clipPathUnits="userSpaceOnUse">
      <path
         inkscape:connector-curvature="0"
         id="path4154"
         d="M 0,250 600,250 600,0 0,0 0,250 Z" />
    </clipPath>
  </defs>
  <sodipodi:namedview
     id="base"
     pagecolor="#ffffff"
     bordercolor="#666666"
     borderopacity="1.0"
     inkscape:pageopacity="0.0"
     inkscape:pageshadow="2"
     inkscape:zoom="0.35"
     inkscape:cx="-108.57142"
     inkscape:cy="121.9643"
     inkscape:document-units="px"
     inkscape:current-layer="layer1"
     showgrid="false"
     fit-margin-top="0"
     fit-margin-left="0"
     fit-margin-right="0"
     fit-margin-bottom="0"
     inkscape:window-width="1680"
     inkscape:window-height="998"
     inkscape:window-x="-8"
     inkscape:window-y="-8"
     inkscape:window-maximized="1" />
  <metadata
     id="metadata7">
    <rdf:RDF>
      <cc:Work
         rdf:about="">
        <dc:format>image/svg+xml</dc:format>
        <dc:type
           rdf:resource="http://purl.org/dc/dcmitype/StillImage" />
        <dc:title></dc:title>
      </cc:Work>
    </rdf:RDF>
  </metadata>
  <g
     inkscape:label="Layer 1"
     inkscape:groupmode="layer"
     id="layer1"
     transform="translate(3.5714329,-341.8265)">
    <g
       transform="matrix(1.25,0,0,-1.25,-3.5714329,654.3265)"
       inkscape:label="Logo_Vector"
       id="g4144">
      <path
         inkscape:connector-curvature="0"
         id="path4146"
         style="fill:#262626;fill-opacity:1;fill-rule:nonzero;stroke:none"
         d="M 0,0 600,0 600,250 0,250 0,0 Z" />
      <g
         id="g4148">
        <g
           clip-path="url(#clipPath4152)"
           id="g4150">
          <g
             transform="translate(526.627,107.1143)"
             id="g4156">
            <path
               inkscape:connector-curvature="0"
               id="path4158"
               style="fill:#a8e00f;fill-opacity:1;fill-rule:nonzero;stroke:none"
               d="m 0,0 c 0.278,0.004 1.945,0.049 2.565,0.049 l 0.011,0 C 3.548,0.011 5.003,-0.717 5.041,-2.167 l 0,-5.617 c -0.102,-0.368 0.014,-1.745 -2.367,-1.945 -1.653,0 -3.098,0.012 -3.129,0.012 -23.287,-0.012 -22.454,22.54 -22.454,22.54 l 0,40.232 c 0,1.234 0.994,2.27 2.223,2.27 l 5.261,0 c 1.229,0 2.297,-1.036 2.297,-2.266 l 0,-8.455 17.864,0 c 1.31,0 2.118,-1.533 2.118,-2.211 l 0,-5.653 C 6.809,35.749 5.726,34.709 4.729,34.709 c -0.559,0 -14.73,-0.017 -17.857,-0.017 l 0,-21.517 c 0,0 -0.709,-13.216 13.128,-13.175" />
          </g>
          <g
             transform="translate(473.7744,99.6836)"
             id="g4160">
            <path
               inkscape:connector-curvature="0"
               id="path4162"
               style="fill:#a8e00f;fill-opacity:1;fill-rule:nonzero;stroke:none"
               d="m 0,0 c 0,-1.229 -1.068,-2.27 -2.296,-2.27 l -5.263,0 c -1.228,0 -2.22,1.041 -2.22,2.274 l 0,29.427 c 0,0 -0.833,22.553 22.454,22.54 0.03,0 8.349,0.013 10.003,0.013 2.382,-0.201 2.266,-1.577 2.367,-1.946 l 0,-5.614 c -0.04,-1.45 -1.492,-2.181 -2.464,-2.219 l -0.011,0 c -0.622,0 -9.164,0.045 -9.441,0.049 C -0.708,42.294 0,29.079 0,29.079 L 0,0 Z" />
          </g>
          <g
             transform="translate(350.6797,106.3691)"
             id="g4164">
            <path
               inkscape:connector-curvature="0"
               id="path4166"
               style="fill:#a8e00f;fill-opacity:1;fill-rule:nonzero;stroke:none"
               d="m 0,0 c 0.28,0.004 1.946,0.049 2.566,0.049 l 0.011,0 C 3.549,0.012 5.003,-0.718 5.044,-2.168 l 0,-5.616 c -0.106,-0.367 0.013,-1.745 -2.37,-1.944 -1.651,0 -3.097,0.011 -3.129,0.011 -23.287,-0.012 -22.454,22.54 -22.454,22.54 l 0,40.232 c 0,1.234 0.997,2.271 2.223,2.271 l 5.262,0 c 1.229,0 2.299,-1.037 2.299,-2.266 l 0,-8.456 17.864,0 c 1.306,0 2.115,-1.533 2.115,-2.21 l 0,-5.652 C 6.81,35.748 5.727,34.708 4.729,34.708 c -0.558,0 -14.731,-0.017 -17.854,-0.017 l 0,-21.517 c 0,0 -0.711,-13.213 13.125,-13.174" />
          </g>
          <g
             transform="translate(268.2617,107.2676)"
             id="g4168">
            <path
               inkscape:connector-curvature="0"
               id="path4170"
               style="fill:#a8e00f;fill-opacity:1;fill-rule:nonzero;stroke:none"
               d="m 0,0 c -0.089,0.008 -24.354,-0.03 -24.354,-0.03 -5.494,0 -5.943,2.288 -5.943,9.359 l 0,0.29 c 3.197,0.002 12.889,0.013 20.9,0.013 9.613,0.034 15.06,5.747 15.329,16.101 l -0.011,3.136 c 0,9.742 -5.872,15.563 -15.735,15.563 l -10.217,0 -4.435,-0.015 C -34.559,44.34 -39.659,39.033 -40.043,28.187 L -40.092,9.335 c 0,-9.505 1.867,-19.225 15.738,-19.225 l 24.335,0 c 1.714,0 2.686,0.907 2.686,2.496 l 0,5.166 C 2.667,-1.416 2.321,-0.05 0,0 m -25.301,34.513 17.229,0.034 c 3.11,-0.383 4.224,-1.978 4.224,-5.682 l 0,-3.768 c -0.226,-2.793 -0.487,-5.668 -5.666,-5.668 l -20.748,0 0,9.335 c 0.08,5.433 2.785,5.601 4.961,5.749" />
          </g>
          <g
             transform="translate(458.6035,132.4678)"
             id="g4172">
            <path
               inkscape:connector-curvature="0"
               id="path4174"
               style="fill:#a8e00f;fill-opacity:1;fill-rule:nonzero;stroke:none"
               d="m 0,0 c 0,9.516 -1.873,19.231 -15.737,19.231 l -14.699,0 C -40.526,19.152 -45.628,13.847 -46.016,3 l 0,-22.527 c 0,-9.749 5.884,-15.563 15.741,-15.563 l 8.66,0 0,-0.016 6.036,0 C -5.487,-35.031 -0.386,-29.722 0,-18.875 L 0,0 Z m -14.745,-25.204 -6.88,-0.107 -8.65,0 c -4.463,0 -5.955,1.454 -5.955,5.788 l 0,23.098 c 0.078,5.437 2.781,5.605 4.959,5.752 l 15.542,0.034 c 5.487,0 5.955,-2.278 5.955,-9.346 l -0.008,-19.469 c -0.079,-5.433 -2.784,-5.602 -4.963,-5.75" />
          </g>
          <g
             transform="translate(223.6836,132.8525)"
             id="g4176">
            <path
               inkscape:connector-curvature="0"
               id="path4178"
               style="fill:#a8e00f;fill-opacity:1;fill-rule:nonzero;stroke:none"
               d="m 0,0 c 0,9.596 -1.879,19.394 -15.857,19.394 l -20.696,0 0,8.545 c 0,1.241 -1.056,2.29 -2.298,2.29 l -5.296,0 c -1.246,0 -2.297,-1.049 -2.297,-2.293 l 0,-47.629 c 0,-9.833 5.982,-15.694 15.909,-15.694 l 10.292,0 4.664,0 C -5.487,-35.31 -0.384,-30.003 0,-19.156 l 0,7.089 0,0.012 L 0,0 Z m -14.744,-25.483 -6.88,-0.034 0,-0.01 -8.911,0 c -4.485,0 -5.993,1.466 -5.993,5.838 l -0.022,29.13 20.693,0 c 5.529,0 5.961,-2.298 5.961,-9.426 l 0.036,-19.748 c -0.08,-5.434 -2.705,-5.602 -4.884,-5.75" />
          </g>
          <g
             transform="translate(322.4766,123.9111)"
             id="g4180">
            <path
               inkscape:connector-curvature="0"
               id="path4182"
               style="fill:#a8e00f;fill-opacity:1;fill-rule:nonzero;stroke:none"
               d="m 0,0 0,8.563 c 0,9.505 -1.87,19.225 -15.738,19.225 l -24.337,0 c -1.716,0 -2.688,-0.907 -2.688,-2.497 l 0,-5.165 c 0,-0.812 0.35,-2.18 2.671,-2.228 0.087,-0.008 24.354,0.031 24.354,0.031 5.491,0 5.943,-2.291 5.943,-9.358 L -9.797,8.279 c -3.197,-0.003 -12.888,-0.01 -20.898,-0.01 -9.613,-0.04 -15.063,-5.75 -15.331,-16.105 l 0.013,-3.135 c 0,-9.743 5.872,-15.56 15.732,-15.56 l 8.678,0 0.026,-0.028 6.036,0 c 10.092,0.078 15.193,5.383 15.582,16.231 L 0.041,0 0,0 Z m -14.706,-16.653 -16.95,-0.036 c -3.392,0.303 -4.588,1.878 -4.588,5.722 l 0,3.771 c 0.224,2.791 0.485,5.665 5.663,5.665 l 20.766,0 0.07,-9.373 c -0.078,-5.436 -2.781,-5.602 -4.961,-5.749" />
          </g>
          <g
             transform="translate(407.1982,132.6377)"
             id="g4184">
            <path
               inkscape:connector-curvature="0"
               id="path4186"
               style="fill:#a8e00f;fill-opacity:1;fill-rule:nonzero;stroke:none"
               d="m 0,0 c 0,9.88 -1.91,19.03 -15.738,19.03 l -14.578,0 c -9.849,0 -15.729,-5.872 -15.729,-15.689 l -0.045,-46.782 c 0,-1.409 0.694,-2.278 1.817,-2.278 l 5.71,0 c 1.212,0 2.273,1.067 2.273,2.268 l 0.006,8.22 20.517,0 c 13.831,0 15.739,9.152 15.739,19.032 l 0,4.246 L 0,0 Z m -11.117,-24.195 c -0.898,-0.888 -2.409,-1.328 -4.65,-1.328 l -20.513,0 0.018,28.864 c 0,4.331 1.555,5.88 5.946,5.88 l 16.245,0 c 1.344,-0.175 2.327,-0.581 2.979,-1.226 1.305,-1.34 1.296,-3.733 1.256,-6.513 0,-0.151 -0.025,-18.734 -0.025,-19.164 0.038,-2.781 0.046,-5.176 -1.256,-6.513" />
          </g>
          <g
             transform="translate(145.6211,124.5635)"
             id="g4188">
            <path
               inkscape:connector-curvature="0"
               id="path4190"
               style="fill:#a8e00f;fill-opacity:1;fill-rule:nonzero;stroke:none"
               d="m 0,0 c 0,20.896 -16.999,37.896 -37.896,37.896 -20.895,0 -37.894,-17 -37.894,-37.896 0,-9.669 3.646,-18.876 10.271,-25.932 l 0.002,0.002 c 0.89,-0.941 2.372,-0.988 3.318,-0.098 l 4.085,3.843 c 0.94,0.885 0.987,2.364 0.108,3.309 l 0.004,0.005 c -4.819,5.134 -7.475,11.839 -7.475,18.871 0,15.208 12.373,27.582 27.581,27.582 15.209,0 27.583,-12.374 27.583,-27.582 0,-7.032 -2.654,-13.737 -7.476,-18.871 l 0.009,-0.009 c -0.877,-0.946 -0.828,-2.422 0.112,-3.305 l 4.086,-3.843 c 0.944,-0.89 2.43,-0.843 3.318,0.1 l -0.004,0.002 C -3.646,-18.871 0,-9.665 0,0" />
          </g>
          <g
             transform="translate(159.9365,124.7451)"
             id="g4192">
            <path
               inkscape:connector-curvature="0"
               id="path4194"
               style="fill:#a8e00f;fill-opacity:1;fill-rule:nonzero;stroke:none"
               d="m 0,0 c 0,5.163 -0.773,10.255 -2.303,15.143 l 0.002,0 c -0.002,0.003 -0.006,0.008 -0.006,0.012 -0.002,0.004 -0.002,0.008 -0.004,0.016 -0.398,1.218 -1.701,1.898 -2.93,1.517 l -5.357,-1.665 c -1.237,-0.383 -1.928,-1.696 -1.547,-2.933 L -12.15,12.086 C -10.935,8.19 -10.312,4.125 -10.312,0 c 0,-7.285 -1.972,-14.43 -5.703,-20.665 l 0.006,-0.006 c -0.656,-1.109 -0.295,-2.543 0.815,-3.208 l 4.811,-2.885 c 1.112,-0.667 2.55,-0.306 3.22,0.805 C -2.477,-18.126 0,-9.15 0,0" />
          </g>
          <g
             transform="translate(71.5293,104.0791)"
             id="g4196">
            <path
               inkscape:connector-curvature="0"
               id="path4198"
               style="fill:#a8e00f;fill-opacity:1;fill-rule:nonzero;stroke:none"
               d="m 0,0 c -3.73,6.234 -5.702,13.379 -5.702,20.665 0,4.125 0.62,8.189 1.838,12.084 l 0.002,0 0,0.002 0,0.002 c 0.382,1.238 -0.31,2.55 -1.545,2.935 l -5.359,1.669 c -1.229,0.381 -2.534,-0.3 -2.929,-1.524 l -0.009,0.005 c -1.533,-4.898 -2.313,-10.001 -2.313,-15.173 0,-9.148 2.481,-18.125 7.165,-25.959 l 0.008,0.004 c 0.669,-1.101 2.103,-1.459 3.212,-0.794 l 4.81,2.885 c 1.105,0.663 1.467,2.088 0.819,3.197 L 0,0 Z" />
          </g>
          <g
             transform="translate(539.3457,99.1846)"
             id="g4200">
            <path
               inkscape:connector-curvature="0"
               id="path4202"
               style="fill:#a8e00f;fill-opacity:1;fill-rule:nonzero;stroke:none"
               d="m 0,0 c -2.234,0 -3.63,1.47 -3.63,3.771 0,2.285 1.396,3.762 3.63,3.762 2.195,0 3.617,-1.477 3.617,-3.762 C 3.617,1.47 2.195,0 0,0 m 0,8.88 c -2.854,0 -5.144,-2.279 -5.144,-5.109 0,-2.864 2.29,-5.145 5.144,-5.145 2.834,0 5.142,2.281 5.142,5.145 C 5.142,6.601 2.834,8.88 0,8.88" />
          </g>
          <g
             transform="translate(539.748,103.123)"
             id="g4204">
            <path
               inkscape:connector-curvature="0"
               id="path4206"
               style="fill:#a8e00f;fill-opacity:1;fill-rule:nonzero;stroke:none"
               d="m 0,0 -1.359,0 0,1.34 1.103,0 C 0.227,1.34 0.932,1.389 0.932,0.726 0.932,0.114 0.557,-0.017 0,0 m -0.02,2.104 -2.37,0 0,-4.798 1.031,0 0,1.939 0.81,0 1.106,-1.939 1.18,0 -1.18,1.939 c 0.854,0.078 1.326,0.444 1.326,1.355 0,1.155 -0.612,1.504 -1.903,1.504" />
          </g>
        </g>
      </g>
    </g>
  </g>
</svg>
