<?xml version="1.0" encoding="utf-8"?>
<!DOCTYPE svg PUBLIC "-//W3C//DTD SVG 20010904//EN" "http://www.w3.org/TR/2001/REC-SVG-20010904/DTD/svg10.dtd">
<svg version="1.0" xmlns="http://www.w3.org/2000/svg" width="504px" height="504px" viewBox="0 0 504 504" preserveAspectRatio="xMidYMid meet">
 <g fill="#000000">
  <path d="M169.9 502.9 c-39.2 -1.1 -57 -3.5 -77.3 -10.6 -20.5 -7.1 -34.2 -15.7 -49.7 -31.2 -15.5 -15.5 -24.1 -29.2 -31.2 -49.7 -4.1 -11.7 -7.1 -25.8 -8.7 -39.9 -3.8 -36 -3.8 -203 0 -239 3.1 -28.2 11.1 -51.7 24.3 -71.5 6.4 -9.6 24.1 -27.3 33.7 -33.7 19.8 -13.2 43.3 -21.2 71.5 -24.3 36 -3.8 203 -3.8 239 0 28.2 3.1 51.7 11.1 71.5 24.3 9.6 6.4 27.3 24.1 33.7 33.7 13.2 19.8 21.2 43.3 24.3 71.5 3.8 36 3.8 203 0 239 -3.1 28.2 -11.1 51.7 -24.3 71.5 -6.4 9.6 -24.1 27.3 -33.7 33.7 -19.8 13.2 -43.3 21.2 -71.5 24.3 -24.9 2.6 -138.3 3.8 -201.6 1.9z m189 -45.8 c34.2 -2.8 53.2 -10.2 70.6 -27.6 17.7 -17.7 24.8 -36.4 27.7 -72.7 1.7 -21.3 1.7 -188.3 0 -209.6 -2.9 -36.3 -10 -55 -27.7 -72.7 -17.7 -17.7 -36.4 -24.8 -72.7 -27.7 -21.3 -1.7 -188.3 -1.7 -209.6 0 -36.3 2.9 -55 10 -72.7 27.7 -17.7 17.7 -24.8 36.4 -27.7 72.7 -1.7 21.3 -1.7 188.3 0 209.6 2.7 34.2 9.6 53.7 25.1 70.4 15 16.3 34.3 25.2 61.7 28.8 5.1 0.6 19 1.5 31 2 29.6 1.1 177.5 0.4 194.3 -0.9z"/>
  <path d="M232.5 379.6 c-36.3 -6.1 -67.6 -26 -87.3 -55.5 -15.5 -23.1 -21.7 -43.8 -21.7 -72.1 0 -17.7 1.4 -26.7 6.1 -40.8 12.6 -37.7 43.9 -69 81.6 -81.6 14.1 -4.7 23.1 -6.1 40.8 -6.1 17.7 0 26.7 1.4 40.8 6.1 37.7 12.6 69 43.9 81.6 81.6 4.7 14.1 6.1 23.1 6.1 40.8 0 17.7 -1.4 26.7 -6.1 40.8 -14.4 43 -51.4 75.9 -96.4 85.7 -10.3 2.2 -35.3 2.8 -45.5 1.1z m35.8 -45 c33.1 -6.4 59.9 -33.2 66.3 -66.3 10 -52.3 -29.5 -100.3 -82.6 -100.3 -53.1 0 -92.6 48 -82.6 100.3 6.3 32.7 33 59.7 65.5 66.2 8.9 1.8 24.3 1.8 33.4 0.1z"/>
  <path d="M381.8 146.9 c-14.3 -2.1 -24.9 -14.7 -24.9 -29.4 0 -11.7 5.9 -21.2 16.3 -26.4 5.1 -2.6 7.3 -3.1 13.3 -3.1 17 0 29.5 12.5 29.5 29.6 0 18.5 -15.8 32 -34.2 29.3z"/>
 </g>
</svg>