<?xml version="1.0" encoding="UTF-8" standalone="no"?>
<svg
   xmlns:dc="http://purl.org/dc/elements/1.1/"
   xmlns:cc="http://creativecommons.org/ns#"
   xmlns:rdf="http://www.w3.org/1999/02/22-rdf-syntax-ns#"
   xmlns:svg="http://www.w3.org/2000/svg"
   xmlns="http://www.w3.org/2000/svg"
   xmlns:sodipodi="http://sodipodi.sourceforge.net/DTD/sodipodi-0.dtd"
   xmlns:inkscape="http://www.inkscape.org/namespaces/inkscape"
   viewBox="0 0 192 192"
   height="192"
   width="192"
   xml:space="preserve"
   id="svg2"
   version="1.1"
   inkscape:version="0.91 r13725"
   sodipodi:docname="pinterest.svg"><sodipodi:namedview
     pagecolor="#ffffff"
     bordercolor="#666666"
     borderopacity="1"
     objecttolerance="10"
     gridtolerance="10"
     guidetolerance="10"
     inkscape:pageopacity="0"
     inkscape:pageshadow="2"
     inkscape:window-width="732"
     inkscape:window-height="480"
     id="namedview9"
     showgrid="false"
     inkscape:zoom="1.2291667"
     inkscape:cx="96"
     inkscape:cy="96"
     inkscape:window-x="0"
     inkscape:window-y="0"
     inkscape:window-maximized="0"
     inkscape:current-layer="svg2" /><metadata
     id="metadata8"><rdf:RDF><cc:Work
         rdf:about=""><dc:format>image/svg+xml</dc:format><dc:type
           rdf:resource="http://purl.org/dc/dcmitype/StillImage" /><dc:title></dc:title></cc:Work></rdf:RDF></metadata><defs
     id="defs6" /><g
     transform="matrix(1.3333333,0,0,-1.3333333,0,192)"
     id="g10"><g
       transform="scale(0.1)"
       id="g12"><path
         id="path14"
         style="fill:#ffffff;fill-opacity:1;fill-rule:nonzero;stroke:none"
         d="M 1440.01,720 C 1440.01,322.352 1117.65,0 720.004,0 322.359,0 0,322.352 0,720 c 0,397.64 322.359,720 720.004,720 397.646,0 720.006,-322.36 720.006,-720" /><path
         id="path16"
         style="fill:#bd1e24;fill-opacity:1;fill-rule:nonzero;stroke:none"
         d="M 719.129,1385.72 C 351.465,1385.72 53.4062,1087.67 53.4062,720 c 0,-282.031 175.4688,-522.922 423.1138,-619.922 -5.821,52.672 -11.075,133.461 2.316,190.961 12.094,51.961 78.062,330.914 78.062,330.914 0,0 -19.914,39.879 -19.914,98.84 0,92.566 53.653,161.676 120.457,161.676 56.797,0 84.235,-42.645 84.235,-93.778 0,-57.117 -36.367,-142.511 -55.137,-221.656 -15.684,-66.262 33.231,-120.297 98.582,-120.297 118.324,0 209.274,124.762 209.274,304.852 0,159.394 -114.536,270.84 -278.075,270.84 -189.418,0 -300.601,-142.075 -300.601,-288.903 0,-57.218 22.039,-118.574 49.543,-151.925 5.433,-6.59 6.234,-12.368 4.617,-19.094 -5.055,-21.028 -16.285,-66.246 -18.492,-75.496 -2.907,-12.188 -9.649,-14.774 -22.262,-8.907 -83.148,38.707 -135.133,160.262 -135.133,257.907 0,210 152.582,402.858 439.871,402.858 230.938,0 410.407,-164.561 410.407,-384.491 0,-229.434 -144.665,-414.078 -345.454,-414.078 -67.457,0 -130.875,35.039 -152.582,76.437 0,0 -33.379,-127.109 -41.472,-158.25 C 589.727,200.66 549.156,128.18 522.02,83.9609 584.309,64.6797 650.504,54.2695 719.129,54.2695 1086.8,54.2695 1384.86,352.332 1384.86,720 c 0,367.67 -298.06,665.72 -665.731,665.72" /></g></g></svg>