<?xml version="1.0" encoding="UTF-8" standalone="no"?>
<svg
   xmlns:dc="http://purl.org/dc/elements/1.1/"
   xmlns:cc="http://creativecommons.org/ns#"
   xmlns:rdf="http://www.w3.org/1999/02/22-rdf-syntax-ns#"
   xmlns:svg="http://www.w3.org/2000/svg"
   xmlns="http://www.w3.org/2000/svg"
   xmlns:sodipodi="http://sodipodi.sourceforge.net/DTD/sodipodi-0.dtd"
   xmlns:inkscape="http://www.inkscape.org/namespaces/inkscape"
   width="496.96713"
   height="1141.5647"
   id="svg2"
   version="1.1"
   inkscape:version="0.91 r13725"
   sodipodi:docname="share.svg">
  <metadata
     id="metadata832">
    <rdf:RDF>
      <cc:Work
         rdf:about="">
        <dc:format>image/svg+xml</dc:format>
        <dc:type
           rdf:resource="http://purl.org/dc/dcmitype/StillImage" />
        <dc:title />
      </cc:Work>
    </rdf:RDF>
  </metadata>
  <defs
     id="defs830" />
  <sodipodi:namedview
     pagecolor="#ffffff"
     bordercolor="#666666"
     borderopacity="1"
     objecttolerance="10"
     gridtolerance="10"
     guidetolerance="10"
     inkscape:pageopacity="0"
     inkscape:pageshadow="2"
     inkscape:window-width="1680"
     inkscape:window-height="998"
     id="namedview828"
     showgrid="false"
     inkscape:zoom="1.3350176"
     inkscape:cx="431.58434"
     inkscape:cy="848.32824"
     inkscape:window-x="-8"
     inkscape:window-y="-8"
     inkscape:window-maximized="1"
     inkscape:current-layer="layer2"
     fit-margin-top="0"
     fit-margin-left="0"
     fit-margin-right="0"
     fit-margin-bottom="0" />
  <g
     inkscape:groupmode="layer"
     id="layer2"
     inkscape:label="Layer 1"
     style="display:inline"
     transform="translate(-198.69795,165.03339)">
    <path
       style="fill:#000000;fill-opacity:1;fill-rule:evenodd;stroke:#000000;stroke-width:1px;stroke-linecap:butt;stroke-linejoin:miter;stroke-opacity:1"
       d="m 695.12109,101.13477 -495.87304,2.99609 12.90625,134.12305 c 0.94766,2.34091 39.47361,97.29382 63.49804,120.55664 27.27429,26.40965 59.59739,47.65577 92.88282,65.91601 55.77284,30.59673 114.63091,58.31485 176.77539,71.91016 21.9741,4.80726 47.05225,-6.5584 67.41601,2.99609 19.89535,9.33473 44.18437,48.22251 44.82617,49.25391 L 668.38086,419.83008 C 667.92505,419.75388 631.00448,413.57045 614.22461,406.75 593.9486,398.50849 587.74274,394.90803 577.52121,385.02701 559.84247,367.93722 559.18363,335.03154 537.8216,322.85523 460.21731,278.62097 404.48743,183.53139 404.48828,183.53125 c 0,0 61.10342,23.00567 92.88281,29.96289 45.19881,9.89503 94.44756,0.38091 137.82618,16.47852 17.07927,6.33803 44.77681,29.73159 46.49609,31.1914 z m -466.96875,303.39257 2.80664,29.16602 c 3.11187,13.0052 12.24852,104.43774 52.1836,145.33789 26.73642,27.38254 59.73843,29.84144 84.26758,79.77539 15.55297,31.66115 -107.73468,-63.82057 -89.51084,-46.06771 16.74456,16.31182 19.53106,44.70732 28.4629,53.18215 34.9287,33.14152 -48.18691,-7.13577 -56.30558,-33.73749 l 4.82422,50.13086 c 1.09107,1.56664 19.57708,27.91896 31.25781,31.54688 33.38616,10.3694 67.68013,-4.66016 104.86719,1.49805 37.18706,6.15821 82.46615,13.94366 115.35547,37.45312 15.07473,10.77549 75.86073,57.46061 30.20898,41.85742 -16.28023,-5.56437 14.46432,32.20831 25.22071,45.0332 20.84581,24.85458 65.96601,60.78795 66.24218,61.00782 l 11.97266,-142.69336 c -0.34324,-0.21065 -80.85217,-49.63077 -115.66797,-81.60938 -21.94353,-20.15532 -32.22141,-52.25818 -56.92773,-68.91211 -43.37067,-19.65953 -99.93849,-24.33846 -132.58219,-53.93231 -20.98917,-19.02819 -41.22215,-37.3138 -42.69698,-74.9054 -0.83224,-21.21271 104.74861,78.25864 65.91734,21.72238 C 319.21706,443.8445 228.15172,404.63013 228.15234,404.52734 Z m 32.73047,340.17578 22.25977,231.32813 338.57226,0 0.97852,-11.6543 c -0.4377,-0.12789 -47.2383,-13.8065 -69.89258,-22.80273 C 480.57031,912.89078 403.5765,887.27934 344.56445,836.70703 324.99351,819.93507 316.85151,792.95371 299.62109,773.78516 287.70796,760.532 261.52213,745.07961 260.88281,744.70312 Z"
       id="path5039"
       inkscape:connector-curvature="0"
       sodipodi:nodetypes="cccssssccsascasccccssssccszsssccscsszcccccsssc" />
    <path
       id="path5082"
       style="fill:#000000;fill-opacity:1;fill-rule:evenodd;stroke:none;stroke-width:1px;stroke-linecap:butt;stroke-linejoin:miter;stroke-opacity:1"
       d="m 525.46255,100.13165 c 0,0 -7.61324,-111.91909 22.47162,-154.30507 29.99308,-42.25668 137.82589,-71.90917 137.82589,-71.90917 l -20.97351,-38.9508 c 0,0 -122.95915,36.60567 -157.30128,85.392141 -35.77504,50.82206 -28.46406,184.267229 -28.46406,184.267229 0,0 46.44134,5.99243 46.44134,-4.49433 z m -157.91673,2.99622 c 0,0 7.61324,-111.919095 -22.47162,-154.305075 -29.99308,-42.256676 -137.82589,-71.909165 -137.82589,-71.909165 l 20.97351,-38.9508 c 0,0 122.95915,36.60567 157.30128,85.392136 35.77504,50.82206 28.46406,184.267234 28.46406,184.267234 0,0 -46.44134,5.99243 -46.44134,-4.49433 z"
       inkscape:connector-curvature="0" />
  </g>
</svg>
