<?xml version="1.0" encoding="UTF-8" standalone="no"?>
<svg
   xmlns:dc="http://purl.org/dc/elements/1.1/"
   xmlns:cc="http://creativecommons.org/ns#"
   xmlns:rdf="http://www.w3.org/1999/02/22-rdf-syntax-ns#"
   xmlns:svg="http://www.w3.org/2000/svg"
   xmlns="http://www.w3.org/2000/svg"
   xmlns:sodipodi="http://sodipodi.sourceforge.net/DTD/sodipodi-0.dtd"
   xmlns:inkscape="http://www.inkscape.org/namespaces/inkscape"
   viewBox="0 0 15.293333 26.613333"
   height="26.613333"
   width="15.293333"
   xml:space="preserve"
   id="svg2"
   version="1.1"
   inkscape:version="0.91 r13725"
   sodipodi:docname="tumblr.svg"><sodipodi:namedview
     pagecolor="#ffffff"
     bordercolor="#666666"
     borderopacity="1"
     objecttolerance="10"
     gridtolerance="10"
     guidetolerance="10"
     inkscape:pageopacity="0"
     inkscape:pageshadow="2"
     inkscape:window-width="732"
     inkscape:window-height="480"
     id="namedview12"
     showgrid="false"
     inkscape:zoom="8.8677357"
     inkscape:cx="7.6466665"
     inkscape:cy="13.306666"
     inkscape:window-x="0"
     inkscape:window-y="0"
     inkscape:window-maximized="0"
     inkscape:current-layer="svg2" /><metadata
     id="metadata8"><rdf:RDF><cc:Work
         rdf:about=""><dc:format>image/svg+xml</dc:format><dc:type
           rdf:resource="http://purl.org/dc/dcmitype/StillImage" /><dc:title></dc:title></cc:Work></rdf:RDF></metadata><defs
     id="defs6"><clipPath
       id="clipPath20"
       clipPathUnits="userSpaceOnUse"><path
         id="path18"
         d="M 0,199.586 V 0 h 114.707 v 199.586 z" /></clipPath></defs><g
     transform="matrix(1.3333333,0,0,-1.3333333,0,26.613333)"
     id="g10"><g
       transform="scale(0.1)"
       id="g12"><g
         id="g14"><g
           clip-path="url(#clipPath20)"
           id="g16"><path
             id="path22"
             style="fill:#32405a;fill-opacity:1;fill-rule:nonzero;stroke:none"
             d="M 105.105,40.1641 C 101.395,38.3984 94.2969,36.8555 89.0039,36.7188 73.0273,36.2891 69.9297,47.9375 69.793,56.3984 v 62.1286 h 40.078 v 30.215 H 69.9414 v 50.844 c 0,0 -28.7617,0 -29.2383,0 -0.4804,0 -1.3164,-0.426 -1.4336,-1.496 C 37.5586,182.531 30.2734,155.219 0,144.309 V 118.527 H 20.1953 V 53.3125 C 20.1953,30.9844 36.668,-0.730469 80.1484,0.0117188 94.8164,0.265625 111.105,6.40625 114.707,11.6992 l -9.602,28.4649" /></g></g></g></g></svg>