<?xml version="1.0" encoding="UTF-8" standalone="no"?>
<svg
   xmlns:dc="http://purl.org/dc/elements/1.1/"
   xmlns:cc="http://creativecommons.org/ns#"
   xmlns:rdf="http://www.w3.org/1999/02/22-rdf-syntax-ns#"
   xmlns:svg="http://www.w3.org/2000/svg"
   xmlns="http://www.w3.org/2000/svg"
   xmlns:sodipodi="http://sodipodi.sourceforge.net/DTD/sodipodi-0.dtd"
   xmlns:inkscape="http://www.inkscape.org/namespaces/inkscape"
   viewBox="0 0 193.95 180"
   height="180"
   width="193.95"
   xml:space="preserve"
   version="1.1"
   id="svg2"
   inkscape:version="0.91 r13725"
   sodipodi:docname="linkedin.svg"><sodipodi:namedview
     pagecolor="#ffffff"
     bordercolor="#666666"
     borderopacity="1"
     objecttolerance="10"
     gridtolerance="10"
     guidetolerance="10"
     inkscape:pageopacity="0"
     inkscape:pageshadow="2"
     inkscape:window-width="1680"
     inkscape:window-height="998"
     id="namedview12"
     showgrid="false"
     inkscape:zoom="1.3111111"
     inkscape:cx="96.974998"
     inkscape:cy="90"
     inkscape:window-x="-8"
     inkscape:window-y="-8"
     inkscape:window-maximized="1"
     inkscape:current-layer="svg2" /><metadata
     id="metadata8"><rdf:RDF><cc:Work
         rdf:about=""><dc:format>image/svg+xml</dc:format><dc:type
           rdf:resource="http://purl.org/dc/dcmitype/StillImage" /><dc:title></dc:title></cc:Work></rdf:RDF></metadata><defs
     id="defs6" /><g
     transform="matrix(1.25,0,0,-1.25,0,180)"
     id="g10"><g
       transform="scale(0.1,0.1)"
       id="g12"><path
         id="path14"
         style="fill:#0977b6;fill-opacity:1;fill-rule:nonzero;stroke:none"
         d="m 1333.43,1440 -1227.141,0 C 47.6484,1440 0,1393.52 0,1336.21 L 0,103.91 C 0,46.5508 47.6484,0 106.289,0 L 1333.43,0 c 58.74,0 106.59,46.5508 106.59,103.91 l 0,1232.3 c 0,57.31 -47.85,103.79 -106.59,103.79" /><path
         id="path16"
         style="fill:#ffffff;fill-opacity:1;fill-rule:nonzero;stroke:none"
         d="m 320.344,1241.75 c 68.277,0 123.765,-55.5 123.765,-123.8 0,-68.36 -55.488,-123.868 -123.765,-123.868 -68.457,0 -123.867,55.508 -123.867,123.868 0,68.3 55.41,123.8 123.867,123.8 m -106.848,-341.613 213.594,0 0,-687.207 -213.594,0 0,687.207" /><path
         id="path18"
         style="fill:#ffffff;fill-opacity:1;fill-rule:nonzero;stroke:none"
         d="m 561.047,900.137 204.883,0 0,-93.891 2.84,0 c 28.496,54.027 98.171,110.996 202.082,110.996 216.278,0 256.208,-142.336 256.208,-327.359 l 0,-376.953 -213.44,0 0,334.187 c 0,79.731 -1.46,182.235 -110.983,182.235 -111.145,0 -128.164,-86.825 -128.164,-176.461 l 0,-339.961 -213.426,0 0,687.207" /><path
         id="path20"
         style="fill:#231f20;fill-opacity:1;fill-rule:nonzero;stroke:none"
         d="m 1512.69,244.16 -6.74,0 0,13.66 8.54,0 c 4.41,0 9.46,-0.718 9.46,-6.488 0,-6.641 -5.09,-7.172 -11.26,-7.172 z m 6.7,-4.051 c 6.81,0.84 10.37,4.582 10.37,10.891 0,7.691 -4.64,11.422 -14.2,11.422 l -15.4,0 0,-40.434 5.79,0 0,17.602 7.15,0 0.16,-0.211 11.07,-17.391 6.2,0 -11.91,18.024 0.77,0.097" /><path
         id="path22"
         style="fill:#231f20;fill-opacity:1;fill-rule:nonzero;stroke:none"
         d="m 1513.35,208.93 c -18.32,0 -32.67,14.449 -32.67,33.242 0,18.738 14.35,33.199 32.67,33.199 18.3,0 32.65,-14.461 32.65,-33.199 0,-18.793 -14.35,-33.242 -32.65,-33.242 z m 0,71.468 c -21.47,0 -38.3,-16.808 -38.3,-38.226 0,-21.481 16.83,-38.242 38.3,-38.242 21.45,0 38.25,16.761 38.25,38.242 0,21.418 -16.8,38.226 -38.25,38.226" /></g></g></svg>