<svg xmlns="http://www.w3.org/2000/svg" width="800" height="333.333" viewBox="0 0 750.00002 312.49999"><defs><clipPath id="a"><path d="M0 250h600V0H0v250z"/></clipPath></defs><path d="M0 312.5h750V0H0v312.5z" fill="#262626"/><g clip-path="url(#a)" transform="matrix(1.25 0 0 -1.25 0 312.5)" fill="#a8e00f"><path d="M526.627 107.114c.278.004 1.945.05 2.565.05h.01c.973-.04 2.428-.767 2.466-2.217V99.33c-.102-.368.014-1.745-2.367-1.945-1.65 0-3.09.012-3.12.012-23.286-.012-22.453 22.54-22.453 22.54v40.232c0 1.23.994 2.27 2.223 2.27h5.26c1.23 0 2.297-1.04 2.297-2.27v-8.46h17.865c1.31 0 2.12-1.534 2.12-2.21v-5.655c-.045-.99-1.128-2.03-2.125-2.03-.56 0-14.73-.018-17.857-.018v-21.51s-.71-13.218 13.128-13.177m-52.853-7.43c0-1.23-1.066-2.27-2.294-2.27h-5.26c-1.23 0-2.22 1.04-2.22 2.275v29.427s-.834 22.553 22.453 22.54c.03 0 8.35.013 10 .013 2.385-.2 2.27-1.577 2.37-1.946v-5.615c-.04-1.45-1.493-2.18-2.465-2.22h-.01c-.622 0-9.164.046-9.44.05-13.837.04-13.13-13.175-13.13-13.175V99.68zm-123.1 6.687c.28.002 1.947.047 2.567.047h.01c.972-.037 2.426-.767 2.467-2.217v-5.61c-.108-.365.01-1.743-2.37-1.942-1.65 0-3.1.012-3.13.012-23.288-.013-22.455 22.54-22.455 22.54v40.23c0 1.235 1 2.27 2.228 2.27h5.262c1.23 0 2.3-1.035 2.3-2.264v-8.456h17.862c1.306 0 2.115-1.534 2.115-2.21v-5.653c-.043-.993-1.126-2.033-2.124-2.033-.56 0-14.734-.015-17.857-.015V119.55s-.71-13.213 13.125-13.174m-82.42.898c-.09.008-24.35-.03-24.35-.03-5.495 0-5.944 2.288-5.944 9.36v.29c3.197 0 12.89.012 20.9.012 9.613.034 15.06 5.747 15.33 16.1l-.012 3.137c0 9.74-5.872 15.563-15.735 15.563h-10.22l-4.434-.015c-10.093-.07-15.193-5.38-15.577-16.23l-.05-18.85c0-9.5 1.866-19.22 15.737-19.22h24.336c1.715 0 2.687.907 2.687 2.496v5.167c0 .81-.348 2.178-2.67 2.228m-25.3 34.515l17.226.037c3.11-.384 4.222-1.98 4.222-5.683v-3.77c-.226-2.795-.487-5.67-5.666-5.67H238v9.335c.08 5.433 2.785 5.6 4.96 5.75m215.643-9.315c0 9.516-1.873 19.23-15.737 19.23h-14.7c-10.09-.078-15.19-5.383-15.58-16.23v-22.53c0-9.75 5.885-15.563 15.742-15.563h8.66v-.016h6.036c10.092.077 15.193 5.386 15.58 16.23v18.878zm-14.745-25.204l-6.88-.105h-8.65c-4.462 0-5.954 1.456-5.954 5.79v23.098c.078 5.438 2.78 5.606 4.96 5.753l15.54.034c5.487 0 5.955-2.28 5.955-9.348l-.01-19.47c-.08-5.433-2.79-5.6-4.97-5.75M223.68 132.86c0 9.595-1.88 19.393-15.856 19.393H187.13v8.545c0 1.243-1.055 2.29-2.297 2.29h-5.296c-1.246 0-2.297-1.047-2.297-2.29v-47.63c0-9.833 5.982-15.694 15.91-15.694h14.954c10.092.075 15.195 5.382 15.58 16.23v19.155zm-14.74-25.49l-6.88-.034v-.01h-8.91c-4.486 0-5.994 1.466-5.994 5.838l-.022 29.13h20.693c5.53 0 5.96-2.298 5.96-9.426l.037-19.748c-.08-5.44-2.705-5.607-4.884-5.75m113.537 16.54v8.56c0 9.506-1.87 19.226-15.738 19.226H282.4c-1.716 0-2.688-.91-2.688-2.5v-5.164c0-.812.35-2.18 2.67-2.228.088-.01 24.355.03 24.355.03 5.49 0 5.942-2.29 5.942-9.358l-.01-.292c-3.198-.003-12.89-.01-20.9-.01-9.613-.04-15.063-5.75-15.33-16.105l.01-3.14c0-9.743 5.874-15.56 15.734-15.56h8.68l.025-.028h6.036c10.092.078 15.193 5.383 15.582 16.23v10.33h-.04zm-14.707-16.65l-16.95-.04c-3.39.304-4.587 1.88-4.587 5.723v3.77c.224 2.792.485 5.666 5.663 5.666h20.766l.07-9.378c-.078-5.437-2.78-5.603-4.96-5.75m99.426 25.378c0 9.88-1.91 19.03-15.738 19.03h-14.578c-9.85 0-15.73-5.87-15.73-15.69l-.044-46.78c0-1.41.694-2.28 1.817-2.28h5.71c1.212 0 2.273 1.07 2.273 2.27l.006 8.22h20.517c13.84 0 15.74 9.15 15.74 19.03v4.248l.03 11.953zm-11.118-24.19c-.895-.887-2.406-1.327-4.65-1.327h-20.51l.02 28.864c0 4.33 1.554 5.88 5.945 5.88h16.245c1.343-.177 2.326-.583 2.98-1.228 1.303-1.34 1.294-3.74 1.254-6.52l-.025-19.166c.03-2.78.04-5.176-1.26-6.513m-250.46 16.13c0 20.897-17 37.897-37.897 37.897-20.895 0-37.894-17-37.894-37.898 0-9.67 3.65-18.88 10.27-25.937l.002.006a2.348 2.348 0 0 1 3.318-.098l4.086 3.843a2.35 2.35 0 0 1 .106 3.31l.004.005a27.486 27.486 0 0 0-7.473 18.87c0 15.21 12.373 27.585 27.58 27.585 15.21 0 27.584-12.374 27.584-27.582a27.474 27.474 0 0 0-7.476-18.87l.01-.01a2.346 2.346 0 0 1 .11-3.305l4.09-3.845a2.347 2.347 0 0 1 3.316.1l-.005.002a37.75 37.75 0 0 1 10.27 25.926"/><path d="M159.936 124.745c0 5.163-.773 10.255-2.303 15.143h.002c0 .003-.005.008-.005.012l-.004.016a2.352 2.352 0 0 1-2.93 1.517l-5.357-1.665a2.346 2.346 0 0 1-1.55-2.933l-.01-.004a40.548 40.548 0 0 0 1.84-12.08 40.25 40.25 0 0 0-5.706-20.66l.006-.006a2.347 2.347 0 0 1 .816-3.21l4.81-2.884a2.348 2.348 0 0 1 3.22.805 50.574 50.574 0 0 1 7.163 25.96m-88.4-20.672a40.254 40.254 0 0 0-5.705 20.664c0 4.125.62 8.19 1.838 12.084h.002v.006a2.35 2.35 0 0 1-1.545 2.935l-5.36 1.67a2.348 2.348 0 0 1-2.927-1.525l-.01.005a50.73 50.73 0 0 1-2.312-15.175 50.6 50.6 0 0 1 7.167-25.96l.008.005a2.346 2.346 0 0 1 3.212-.8l4.81 2.885a2.346 2.346 0 0 1 .82 3.196l.002.006zm467.814-4.895c-2.234 0-3.63 1.47-3.63 3.77 0 2.286 1.396 3.763 3.63 3.763 2.195 0 3.617-1.475 3.617-3.76 0-2.3-1.42-3.77-3.616-3.77m0 8.88c-2.854 0-5.144-2.28-5.144-5.11a5.122 5.122 0 0 1 5.145-5.145 5.133 5.133 0 0 1 5.142 5.15c0 2.83-2.308 5.11-5.142 5.11"/><path d="M539.748 103.123h-1.36v1.34h1.104c.483 0 1.188.05 1.188-.614 0-.62-.375-.75-.932-.73m-.02 2.1h-2.37v-4.8h1.03v1.94h.81l1.107-1.94h1.18l-1.18 1.94c.854.08 1.326.443 1.326 1.354 0 1.155-.61 1.504-1.9 1.504"/></g></svg>