<svg xmlns="http://www.w3.org/2000/svg" width="161.035" height="157.058" viewBox="0 0 150.97 147.24187"><path d="M75.485 0C33.8 0 0 33.794 0 75.485c0 33.35 21.63 61.645 51.62 71.626 3.774.7 5.16-1.63 5.16-3.63 0-1.8-.07-7.74-.104-14.05-21 4.57-25.43-8.9-25.43-8.9-3.435-8.724-8.382-11.045-8.382-11.045-6.85-4.685.516-4.59.516-4.59 7.58.534 11.57 7.78 11.57 7.78 6.734 11.54 17.66 8.204 21.968 6.275.677-4.878 2.633-8.21 4.792-10.094-16.766-1.905-34.39-8.38-34.39-37.303 0-8.24 2.948-14.974 7.776-20.26-.783-1.9-3.367-9.58.732-19.976 0 0 6.34-2.03 20.763 7.738 6.03-1.67 12.48-2.51 18.9-2.54 6.42.03 12.88.87 18.91 2.54 14.41-9.765 20.74-7.737 20.74-7.737 4.11 10.395 1.527 18.073.74 19.974 4.84 5.286 7.77 12.02 7.77 20.26 0 28.995-17.66 35.377-34.466 37.246 2.707 2.344 5.12 6.937 5.12 13.98 0 10.1-.086 18.23-.086 20.715 0 2.01 1.358 4.363 5.184 3.623 29.978-9.992 51.58-38.277 51.58-71.617C150.97 33.794 117.175 0 75.485 0" fill="#323131" fill-rule="evenodd"/><path d="M28.59 108.38c-.166.375-.756.488-1.293.23-.55-.247-.855-.76-.678-1.135.16-.385.75-.492 1.3-.235.54.246.86.763.67 1.14m3.05 3.41c-.36.333-1.065.178-1.54-.35-.496-.525-.587-1.23-.22-1.568.37-.334 1.053-.177 1.546.35.495.53.592 1.23.215 1.568m2.977 4.347c-.46.322-1.22.02-1.688-.652-.464-.67-.464-1.476.01-1.798.47-.323 1.214-.032 1.69.633.46.683.46 1.488-.014 1.817m4.08 4.2c-.415.456-1.296.334-1.94-.29-.66-.608-.845-1.47-.43-1.928.42-.46 1.305-.33 1.955.28.656.61.856 1.48.415 1.93m5.627 2.44c-.183.59-1.032.86-1.887.605-.85-.258-1.41-.95-1.24-1.547.18-.596 1.03-.875 1.89-.606.856.256 1.416.944 1.24 1.545m6.177.45c.02.623-.704 1.14-1.602 1.15-.9.022-1.632-.483-1.642-1.096 0-.626.71-1.136 1.61-1.152.897-.016 1.634.485 1.634 1.1m5.748-.976c.11.606-.515 1.23-1.406 1.396-.876.16-1.687-.213-1.8-.814-.107-.623.526-1.246 1.403-1.408.89-.156 1.69.21 1.806.827" fill="#323131"/></svg>