<svg xmlns="http://www.w3.org/2000/svg" width="110" height="40" viewBox="0 0 110 40"><path fill="#A6A6A6" d="M103.37 0H5.866a33.6 33.6 0 0 0-.635.01c-.46.016-.93.04-1.39.125a4.564 4.564 0 0 0-2.45 1.25A4.55 4.55 0 0 0 .14 3.837c-.088.46-.11.93-.127 1.394A33.72 33.72 0 0 0 0 5.87v28.268c.003.21.005.426.01.64.016.47.04.933.126 1.388a4.428 4.428 0 0 0 1.252 2.45 4.44 4.44 0 0 0 1.13.825c.42.22.855.35 1.32.44.46.08.93.11 1.396.12l.637.01h98.27l.64-.01c.464-.01.933-.035 1.394-.115a4.99 4.99 0 0 0 1.32-.44c.42-.21.796-.49 1.126-.822a4.448 4.448 0 0 0 1.253-2.45c.08-.455.11-.92.12-1.39.01-.212.01-.427.01-.64V5.865c0-.212-.002-.42-.01-.634a9.316 9.316 0 0 0-.123-1.392 4.536 4.536 0 0 0-1.256-2.45 4.398 4.398 0 0 0-1.127-.816 4.718 4.718 0 0 0-1.32-.435A9.21 9.21 0 0 0 104.77.01a34.68 34.68 0 0 0-.64-.01h-.76z"/><path d="M103.37.985h.753c.207.002.416.004.62.014a7.17 7.17 0 0 1 1.245.1c.395.07.727.18 1.05.34a3.483 3.483 0 0 1 1.514 1.514c.163.32.272.653.343 1.05.076.422.096.864.105 1.24a93.253 93.253 0 0 1 .01 1.374v26.76c0 .243 0 .5-.002.75 0 .204-.002.413-.008.62a8.43 8.43 0 0 1-.105 1.242c-.07.387-.18.725-.342 1.053-.166.318-.38.613-.64.875a3.46 3.46 0 0 1-.876.63 3.454 3.454 0 0 1-1.047.35 8.746 8.746 0 0 1-1.244.11 62.3 62.3 0 0 1-.623.002c-.25.003-.502.003-.752.003H6.62c-.25 0-.497 0-.748-.003-.203-.002-.412-.004-.617-.008a8.842 8.842 0 0 1-1.24-.11 3.452 3.452 0 0 1-1.052-.35 3.402 3.402 0 0 1-.874-.63 3.717 3.717 0 0 1-.64-.874 3.908 3.908 0 0 1-.34-1.054A7.57 7.57 0 0 1 1 34.75a14.36 14.36 0 0 1-.01-.62V5.875c0-.208.002-.416.012-.624a7.46 7.46 0 0 1 .107-1.24c.07-.39.18-.72.34-1.05a3.51 3.51 0 0 1 1.51-1.51c.32-.16.65-.27 1.05-.34.423-.08.863-.1 1.24-.104.205-.01.413-.013.62-.014h97.495"/><path d="M30.128 19.784c-.03-3.223 2.64-4.79 2.76-4.864-1.51-2.203-3.852-2.504-4.675-2.528-1.967-.207-3.875 1.177-4.877 1.177-1.022 0-2.565-1.16-4.228-1.13-2.14.03-4.142 1.27-5.24 3.193-2.266 3.923-.576 9.69 1.595 12.86 1.086 1.55 2.355 3.285 4.016 3.225 1.62-.068 2.23-1.037 4.19-1.037 1.94 0 2.51 1.036 4.2.997 1.743-.03 2.84-1.56 3.89-3.127 1.254-1.78 1.76-3.533 1.78-3.623-.04-.01-3.388-1.29-3.42-5.15zm-3.2-9.478c.874-1.093 1.472-2.58 1.306-4.09-1.265.057-2.847.876-3.758 1.945-.806.95-1.526 2.49-1.34 3.94 1.42.11 2.88-.71 3.792-1.79zm22.552 2.786c-.61.23-1.253.345-1.93.345-1.006 0-1.792-.273-2.358-.82-.584-.565-.876-1.342-.876-2.33 0-.98.312-1.77.937-2.367s1.446-.895 2.465-.895c.652 0 1.177.096 1.575.29l-.224.82c-.39-.175-.85-.262-1.37-.262-.71 0-1.27.202-1.68.606-.43.42-.65 1-.65 1.75s.204 1.33.614 1.76c.39.41.926.61 1.603.61.422 0 .727-.045.913-.13v-1.7h-1.14v-.79h2.116v3.11zm5.247-2.2c0 .18-.013.334-.037.458h-3.02c.013.447.16.79.438 1.025.255.21.584.317.988.317a3.35 3.35 0 0 0 1.22-.214l.16.7c-.43.186-.936.28-1.52.28-.702 0-1.253-.208-1.654-.62-.4-.414-.6-.968-.6-1.665 0-.683.186-1.252.558-1.706.392-.484.92-.727 1.584-.727.652 0 1.146.242 1.482.727.267.386.4.86.4 1.426zm-.96-.26a1.365 1.365 0 0 0-.196-.773c-.17-.28-.44-.42-.8-.42a.958.958 0 0 0-.8.41c-.17.21-.26.48-.3.78h2.1zM58.324 9.6h-1.11v2.2c0 .558.197.838.59.838.18 0 .328-.016.446-.046l.027.764c-.198.075-.46.112-.782.112-.397 0-.708-.12-.932-.364-.224-.242-.335-.65-.335-1.22V9.597h-.662v-.755h.662v-.83l.987-.298v1.128h1.11v.755zm4.94-2.108c0 .18-.06.327-.178.44a.635.635 0 0 1-.457.167.586.586 0 0 1-.6-.61.57.57 0 0 1 .172-.43c.117-.11.264-.17.44-.17s.32.057.436.17a.57.57 0 0 1 .177.43zm-.113 5.882h-1v-4.53h1.01v4.53zM67.08 9.6h-1.11v2.2c0 .558.195.838.586.838.18 0 .33-.016.447-.046l.028.764c-.19.075-.46.112-.78.112-.4 0-.71-.12-.93-.364-.222-.242-.333-.65-.333-1.22V9.597h-.662v-.755h.663v-.83l.986-.298v1.128h1.108v.755zm7.96 1.472c0 .696-.2 1.268-.597 1.715-.417.46-.97.69-1.66.69-.664 0-1.193-.22-1.59-.662-.396-.44-.592-.998-.592-1.668 0-.702.207-1.277.61-1.724.41-.445.96-.67 1.65-.67.666 0 1.2.22 1.605.663.384.428.576.98.576 1.658zm-1.045.033c0-.417-.09-.775-.27-1.075-.213-.36-.514-.542-.905-.542-.404 0-.712.18-.923.542-.18.3-.27.664-.27 1.093 0 .42.09.778.27 1.077.22.36.524.542.915.542.385 0 .686-.185.903-.55.186-.307.28-.67.28-1.086zm6.31 2.27H79.3V10.78c0-.8-.306-1.2-.915-1.2-.3 0-.54.11-.73.33-.187.22-.28.48-.28.777v2.687H76.37V10.14c0-.398-.014-.83-.038-1.295h.883l.05.708h.03c.115-.22.29-.4.52-.545.27-.17.576-.254.912-.254.423 0 .774.138 1.054.41.35.336.52.836.52 1.5v2.713zM47.047 19.04c0 .382-.125.69-.375.928-.25.237-.57.355-.964.355-.355 0-.655-.122-.9-.365s-.364-.55-.364-.918.125-.67.375-.908c.25-.237.56-.355.922-.355s.678.118.928.355c.25.236.378.54.378.908zm-.237 12.462h-2.137v-9.6h2.133v9.6zm11.47-11.514h-3.81v11.514h-2.13V19.988h-3.794V18.19h9.736v1.798zm8.887 11.514H65.29l-.117-1.46h-.04c-.672 1.118-1.686 1.677-3.04 1.677-.95 0-1.706-.3-2.272-.89-.67-.73-1-1.82-1-3.28V21.9h2.133v5.293c0 1.844.634 2.765 1.898 2.765.95 0 1.607-.46 1.977-1.38.093-.238.14-.508.14-.81V21.9H67.1v6.834c-.003.91.023 1.83.076 2.765zm11.22 0h-2.134v-5.496c0-1.695-.646-2.542-1.936-2.542-.63 0-1.144.233-1.54.7a2.466 2.466 0 0 0-.592 1.645v5.69h-2.133v-6.86c0-.845-.026-1.76-.08-2.748h1.878l.1 1.5h.058a3.07 3.07 0 0 1 1.108-1.157c.58-.36 1.225-.54 1.936-.54.896 0 1.64.29 2.23.87.738.71 1.107 1.77 1.107 3.18v5.75zm10.88-5.254c0 .383-.026.705-.08.97h-6.4c.028.946.338 1.67.93 2.17.54.448 1.238.673 2.095.673.947 0 1.81-.15 2.587-.45l.33 1.48c-.91.4-1.985.59-3.22.59-1.49 0-2.66-.43-3.508-1.31-.85-.87-1.273-2.05-1.273-3.52 0-1.45.395-2.653 1.185-3.614.83-1.03 1.947-1.54 3.356-1.54 1.38 0 2.43.51 3.14 1.54.565.814.848 1.82.848 3.02zm-2.034-.553c.013-.632-.126-1.178-.415-1.64-.37-.592-.934-.888-1.697-.888-.69 0-1.26.29-1.69.87-.357.46-.567 1.013-.634 1.657h4.445zm10.27 3.05c0 .892-.33 1.61-.986 2.146-.657.54-1.565.81-2.724.81-1.094 0-2.02-.21-2.785-.65l.456-1.58c.737.45 1.52.67 2.35.67 1.094 0 1.64-.4 1.64-1.2a1.18 1.18 0 0 0-.355-.88c-.24-.23-.66-.453-1.27-.68-1.71-.63-2.568-1.55-2.568-2.762 0-.83.315-1.52.947-2.074s1.47-.83 2.51-.83c.95 0 1.76.194 2.43.58l-.45 1.53a3.772 3.772 0 0 0-1.96-.554c-.446 0-.796.104-1.045.315-.25.21-.376.48-.376.81 0 .33.133.6.397.81.224.2.658.416 1.304.65 1.658.63 2.488 1.598 2.488 2.9z" fill="#FFF"/></svg>