<svg xmlns="http://www.w3.org/2000/svg" viewBox="0 0 193.95 180" height="180" width="193.95"><path d="M166.68 0H13.285C5.955 0 0 5.81 0 12.974V167.01C0 174.18 5.956 180 13.286 180H166.68c7.34 0 13.323-5.82 13.323-12.99V12.975C180.003 5.81 174.02 0 166.678 0" fill="#0977b6"/><path d="M40.043 24.78c8.535 0 15.47 6.94 15.47 15.476 0 8.545-6.935 15.484-15.47 15.484-8.557 0-15.483-6.94-15.483-15.484 0-8.537 6.926-15.475 15.483-15.475M26.687 67.488h26.7v85.9h-26.7v-85.9m43.443 0h25.61V79.22h.356c3.562-6.754 12.272-13.875 25.26-13.875 27.035 0 32.027 17.792 32.027 40.92v47.12h-26.68V111.61c0-9.966-.183-22.78-13.873-22.78-13.893 0-16.02 10.854-16.02 22.06v42.494H70.13v-85.9" fill="#fff"/><path d="M189.086 149.48h-.842v-1.708h1.067c.556 0 1.188.09 1.188.81 0 .832-.636.898-1.408.898zm.838.506c.85-.105 1.296-.572 1.296-1.36 0-.962-.58-1.43-1.775-1.43h-1.925v5.055h.724v-2.2h.893l.02.03 1.384 2.175h.78l-1.49-2.252.098-.01" fill="#231f20"/><path d="M189.17 153.884c-2.29 0-4.085-1.806-4.085-4.155 0-2.348 1.794-4.15 4.084-4.15 2.282 0 4.08 1.802 4.08 4.144 0 2.35-1.798 4.156-4.08 4.156zm0-8.934c-2.685 0-4.79 2.1-4.79 4.778 0 2.686 2.105 4.78 4.79 4.78 2.68 0 4.78-2.094 4.78-4.78 0-2.677-2.1-4.778-4.78-4.778" fill="#231f20"/></svg>