<svg xmlns="http://www.w3.org/2000/svg" viewBox="0 0 192 192" height="192" width="192"><path d="M192 96c0 53.02-42.98 96-96 96S0 149.02 0 96 42.98 0 96 0s96 42.98 96 96" fill="#fff"/><path d="M95.884 7.237C46.862 7.237 7.12 46.977 7.12 96c0 37.604 23.397 69.723 56.416 82.656-.776-7.023-1.477-17.795.31-25.46 1.61-6.93 10.407-44.123 10.407-44.123s-2.655-5.317-2.655-13.18c0-12.34 7.154-21.556 16.06-21.556 7.574 0 11.232 5.686 11.232 12.504 0 7.62-4.85 19.008-7.35 29.56-2.093 8.835 4.43 16.04 13.143 16.04 15.776 0 27.903-16.635 27.903-40.647 0-21.253-15.27-36.112-37.077-36.112-25.26 0-40.08 18.944-40.08 38.52 0 7.63 2.933 15.81 6.6 20.258.724.88.83 1.65.616 2.546-.674 2.804-2.17 8.833-2.466 10.066-.387 1.624-1.286 1.97-2.967 1.187-11.087-5.16-18.018-21.37-18.018-34.388 0-28 20.342-53.716 58.647-53.716 30.792 0 54.72 21.944 54.72 51.268 0 30.59-19.287 55.21-46.06 55.21-8.993 0-17.45-4.67-20.343-10.19 0 0-4.45 16.947-5.53 21.1-2.007 7.71-7.416 17.373-11.034 23.27a88.74 88.74 0 0 0 26.28 3.958c49.024 0 88.765-39.74 88.765-88.763S144.908 7.24 95.883 7.24" fill="#bd1e24"/></svg>