<svg xmlns="http://www.w3.org/2000/svg" width="496.967" height="1141.565"><g fill-rule="evenodd"><path d="M496.423 266.168L.55 269.164l12.906 134.123c.948 2.34 39.474 97.294 63.498 120.557 27.275 26.41 59.598 47.656 92.883 65.916 55.773 30.597 114.63 58.315 176.776 71.91 21.974 4.807 47.052-6.558 67.416 2.996 19.89 9.335 44.18 48.223 44.82 49.254l10.83-129.057c-.46-.076-37.38-6.26-54.16-13.08-20.277-8.24-26.48-11.842-36.705-21.723-17.677-17.09-18.336-49.995-39.7-62.17-77.6-44.237-133.33-139.326-133.33-139.326s61.104 23.005 92.883 29.963c45.2 9.895 94.45.38 137.826 16.478 17.08 6.338 44.773 29.732 46.492 31.19zM29.453 569.56l2.808 29.167c3.12 13.005 12.25 104.437 52.19 145.338 26.74 27.382 59.74 29.84 84.27 79.775 15.554 31.66-107.733-63.82-89.51-46.068 16.745 16.312 19.53 44.708 28.46 53.182 34.93 33.142-48.185-7.135-56.303-33.737l4.824 50.13c1.09 1.567 19.577 27.92 31.258 31.548 33.388 10.37 67.68-4.66 104.87 1.498 37.186 6.158 82.465 13.943 115.354 37.453 15.076 10.775 75.86 57.46 30.21 41.857-16.28-5.564 14.465 32.21 25.22 45.034 20.847 24.854 65.967 60.787 66.24 61.007l11.97-142.694c-.34-.21-80.85-49.63-115.67-81.607-21.94-20.156-32.22-52.26-56.924-68.913-43.37-19.66-99.938-24.34-132.582-53.933-20.99-19.028-41.22-37.314-42.694-74.905-.833-21.213 104.75 78.258 65.916 21.722-38.83-56.536-129.895-95.75-129.895-95.853zm32.732 340.177l22.26 231.328h338.572l.978-11.655c-.437-.128-47.238-13.806-69.892-22.802-72.23-28.684-149.224-54.295-208.237-104.868-19.57-16.772-27.712-43.753-44.943-62.92-11.913-13.255-38.1-28.707-38.738-29.083z" stroke="#000"/><path d="M326.765 265.165s-7.614-111.92 22.47-154.305c29.994-42.257 137.827-71.91 137.827-71.91L466.09 0S343.13 36.606 308.786 85.392c-35.775 50.822-28.464 184.267-28.464 184.267s46.442 5.99 46.442-4.5zm-157.917 2.996s7.613-111.91-22.472-154.3C116.383 71.6 8.55 41.95 8.55 41.95L29.524 3s122.96 36.604 157.3 85.39c35.776 50.822 28.466 184.27 28.466 184.27s-46.442 5.99-46.442-4.497z"/></g></svg>