<svg xmlns="http://www.w3.org/2000/svg" width="544.254" height="307.34" viewBox="0 0 544.25373 307.34035"><defs><linearGradient x2="1" gradientUnits="userSpaceOnUse" gradientTransform="rotate(-90 349.31 65.332) scale(108.88672)" id="a"><stop offset="0" stop-color="#f57815"/><stop offset=".266" stop-color="#f57815"/><stop offset="1" stop-color="#ef381f"/></linearGradient><linearGradient x2="1" gradientUnits="userSpaceOnUse" gradientTransform="rotate(-90 401.992 141.813) scale(189.08395)" id="b"><stop offset="0" stop-color="#f57815"/><stop offset=".266" stop-color="#f57815"/><stop offset="1" stop-color="#ef381f"/></linearGradient><linearGradient x2="1" gradientUnits="userSpaceOnUse" gradientTransform="rotate(-90 392.916 151.267) scale(189.08395)" id="c"><stop offset="0" stop-color="#f57815"/><stop offset=".266" stop-color="#f57815"/><stop offset="1" stop-color="#ef381f"/></linearGradient><linearGradient x2="1" gradientUnits="userSpaceOnUse" gradientTransform="matrix(0 -148.92578 -148.92578 0 283.85 543.88)" id="d"><stop offset="0" stop-color="#f57815"/><stop offset=".266" stop-color="#f57815"/><stop offset="1" stop-color="#ef381f"/></linearGradient><linearGradient x2="1" gradientUnits="userSpaceOnUse" gradientTransform="matrix(0 -117.67578 -117.67578 0 283.85 419.235)" id="e"><stop offset="0" stop-color="#f57815"/><stop offset=".266" stop-color="#f57815"/><stop offset="1" stop-color="#ef381f"/></linearGradient><linearGradient x2="1" gradientUnits="userSpaceOnUse" gradientTransform="matrix(0 -189.08395 -189.08395 0 209.736 543.88)" id="f"><stop offset="0" stop-color="#f57815"/><stop offset=".266" stop-color="#f57815"/><stop offset="1" stop-color="#ef381f"/></linearGradient><linearGradient x2="1" gradientUnits="userSpaceOnUse" gradientTransform="matrix(0 -189.08395 -189.08395 0 205.887 543.88)" id="g"><stop offset="0" stop-color="#f57815"/><stop offset=".266" stop-color="#f57815"/><stop offset="1" stop-color="#ef381f"/></linearGradient><linearGradient x2="1" gradientUnits="userSpaceOnUse" gradientTransform="rotate(-90 385.73 157.885) scale(189.08395)" id="h"><stop offset="0" stop-color="#f57815"/><stop offset=".266" stop-color="#f57815"/><stop offset="1" stop-color="#ef381f"/></linearGradient><linearGradient x2="1" gradientUnits="userSpaceOnUse" gradientTransform="rotate(-90 383.84 159.965) scale(189.08395)" id="i"><stop offset="0" stop-color="#f57815"/><stop offset=".266" stop-color="#f57815"/><stop offset="1" stop-color="#ef381f"/></linearGradient><linearGradient x2="1" gradientUnits="userSpaceOnUse" gradientTransform="matrix(0 -189.08395 -189.08395 0 135.576 543.88)" id="j"><stop offset="0" stop-color="#f57815"/><stop offset=".266" stop-color="#f57815"/><stop offset="1" stop-color="#ef381f"/></linearGradient><linearGradient x2="1" gradientUnits="userSpaceOnUse" gradientTransform="matrix(0 -189.08395 -189.08395 0 278.445 543.88)" id="k"><stop offset="0" stop-color="#f57815"/><stop offset=".266" stop-color="#f57815"/><stop offset="1" stop-color="#ef381f"/></linearGradient><linearGradient x2="1" gradientUnits="userSpaceOnUse" gradientTransform="matrix(0 -189.08395 -189.08395 0 152.942 543.88)" id="l"><stop offset="0" stop-color="#f57815"/><stop offset=".266" stop-color="#f57815"/><stop offset="1" stop-color="#ef381f"/></linearGradient><linearGradient x2="1" gradientUnits="userSpaceOnUse" gradientTransform="matrix(0 -189.08395 -189.08395 0 170.45 543.88)" id="m"><stop offset="0" stop-color="#f57815"/><stop offset=".266" stop-color="#f57815"/><stop offset="1" stop-color="#ef381f"/></linearGradient><linearGradient x2="1" gradientUnits="userSpaceOnUse" gradientTransform="matrix(0 -189.08395 -189.08395 0 187.828 543.88)" id="n"><stop offset="0" stop-color="#f57815"/><stop offset=".266" stop-color="#f57815"/><stop offset="1" stop-color="#ef381f"/></linearGradient><linearGradient x2="1" gradientUnits="userSpaceOnUse" gradientTransform="matrix(0 -70.3125 -70.3125 0 155.625 393.55)" id="o"><stop offset="0" stop-color="#f57815"/><stop offset=".266" stop-color="#f57815"/><stop offset="1" stop-color="#ef381f"/></linearGradient><linearGradient x2="1" gradientUnits="userSpaceOnUse" gradientTransform="matrix(0 -189.08395 -189.08395 0 296.71 543.88)" id="p"><stop offset="0" stop-color="#f57815"/><stop offset=".266" stop-color="#f57815"/><stop offset="1" stop-color="#ef381f"/></linearGradient><linearGradient x2="1" gradientUnits="userSpaceOnUse" gradientTransform="matrix(0 -189.08395 -189.08395 0 85.16 543.88)" id="q"><stop offset="0" stop-color="#f57815"/><stop offset=".266" stop-color="#f57815"/><stop offset="1" stop-color="#ef381f"/></linearGradient><linearGradient x2="1" gradientUnits="userSpaceOnUse" gradientTransform="matrix(0 -189.08395 -189.08395 0 101.26 543.88)" id="r"><stop offset="0" stop-color="#f57815"/><stop offset=".266" stop-color="#f57815"/><stop offset="1" stop-color="#ef381f"/></linearGradient><linearGradient x2="1" gradientUnits="userSpaceOnUse" gradientTransform="matrix(0 -189.08395 -189.08395 0 118.347 543.88)" id="s"><stop offset="0" stop-color="#f57815"/><stop offset=".266" stop-color="#f57815"/><stop offset="1" stop-color="#ef381f"/></linearGradient><linearGradient x2="1" gradientUnits="userSpaceOnUse" gradientTransform="rotate(-90 477.716 66.087) scale(188.8206)" id="t"><stop offset="0" stop-color="#f57815"/><stop offset="0" stop-color="#f57815"/><stop offset="0" stop-color="#f57815"/><stop offset=".263" stop-color="#f57815"/><stop offset="1" stop-color="#ef381f"/></linearGradient><clipPath id="u"><path d="M0 841.89h595.28V0H0v841.89z"/></clipPath></defs><path d="M283.848 360.384v.014-.014z" fill="url(#a)" transform="matrix(1.25 0 0 -1.25 -99.924 679.85)"/><path d="M254.802 497.78l-2.304-92.95 2.305-44.725c.054-2.85 2.32-5.1 5.154-5.1 2.827 0 5.09 2.25 5.153 5.132v-.037l2.582 44.725-2.582 92.965c-.062 2.87-2.326 5.126-5.153 5.126-2.835 0-5.1-2.257-5.155-5.135" fill="url(#b)" transform="matrix(1.25 0 0 -1.25 -99.924 679.85)"/><path d="M236.946 501.31l-2.525-96.475 2.53-45.01c.06-2.642 2.16-4.736 4.78-4.736s4.71 2.09 4.79 4.76v-.04l2.84 45.02-2.838 96.48c-.07 2.66-2.17 4.75-4.782 4.75-2.62 0-4.722-2.09-4.783-4.76" fill="url(#c)" transform="matrix(1.25 0 0 -1.25 -99.924 679.85)"/><path d="M283.85 360.413v-.015.015" fill="url(#d)" transform="matrix(1.25 0 0 -1.25 -99.924 679.85)"/><path d="M283.848 360.383v.014-.014z" fill="url(#e)" transform="matrix(1.25 0 0 -1.25 -99.924 679.85)"/><path d="M209.735 359.113l.002.027-.002-.027z" fill="url(#f)" transform="matrix(1.25 0 0 -1.25 -99.924 679.85)"/><path d="M201.655 500.62l-2.963-95.77 2.966-45.728c.075-2.227 1.85-3.987 4.04-3.987 2.176 0 3.95 1.755 4.04 4.005l3.343 45.71-3.34 95.772c-.09 2.25-1.86 4.012-4.04 4.012-2.19 0-3.96-1.764-4.04-4.014" fill="url(#g)" transform="matrix(1.25 0 0 -1.25 -99.924 679.85)"/><path d="M228.053 359.42v-.023.023" fill="url(#h)" transform="matrix(1.25 0 0 -1.25 -99.924 679.85)"/><path d="M219.23 503.842l-2.743-98.998 2.747-45.443c.068-2.43 2.005-4.35 4.41-4.35 2.395 0 4.33 1.926 4.41 4.38l3.09 45.42-3.09 99.004c-.08 2.46-2.014 4.385-4.41 4.385-2.405 0-4.342-1.93-4.413-4.39" fill="url(#i)" transform="matrix(1.25 0 0 -1.25 -99.924 679.85)"/><path d="M132.76 452.56l-3.84-47.67 3.84-46.116c.108-1.426 1.208-2.505 2.558-2.505 1.332 0 2.43 1.07 2.55 2.5l4.363 46.11-4.36 47.678c-.12 1.424-1.22 2.5-2.55 2.5-1.35 0-2.45-1.078-2.55-2.51" fill="url(#j)" transform="matrix(1.25 0 0 -1.25 -99.924 679.85)"/><path d="M275.347 520.044a5.624 5.624 0 0 1-2.55-4.612l-.02-1.043-2.065-109.54c0-.07 2.086-44.47 2.086-44.47 0-.064.01-.127.013-.19a5.55 5.55 0 0 1 1.29-3.285c1.02-1.22 2.54-2 4.23-2 1.5 0 2.87.616 3.87 1.614a5.622 5.622 0 0 1 1.66 3.883l.23 4.395 2.097 40.01-2.326 110.616a5.628 5.628 0 0 1-2.473 4.56 5.428 5.428 0 0 1-3.052.946 5.415 5.415 0 0 1-2.975-.896" fill="url(#k)" transform="matrix(1.25 0 0 -1.25 -99.924 679.85)"/><path d="M149.776 449.104l-3.625-44.218 3.63-46.496c.1-1.638 1.36-2.88 2.93-2.88 1.554 0 2.81 1.24 2.925 2.882l4.107 46.494-4.107 44.236c-.114 1.63-1.37 2.87-2.927 2.87-1.57 0-2.825-1.24-2.923-2.888" fill="url(#l)" transform="matrix(1.25 0 0 -1.25 -99.924 679.85)"/><path d="M166.93 476.81l-3.404-71.942 3.404-46.492c.09-1.815 1.538-3.25 3.298-3.25 1.744 0 3.19 1.435 3.295 3.26v-.014l3.85 46.496-3.85 71.945c-.104 1.83-1.55 3.26-3.295 3.26-1.76 0-3.21-1.434-3.298-3.263" fill="url(#m)" transform="matrix(1.25 0 0 -1.25 -99.924 679.85)"/><path d="M183.95 493.012l-3.18-88.395 3.184-46.204c.082-2.02 1.693-3.617 3.668-3.617 1.957 0 3.566 1.59 3.665 3.624l3.6 46.197-3.6 88.395c-.093 2.04-1.704 3.635-3.665 3.635-1.975 0-3.586-1.596-3.672-3.635m7.338-134.58" fill="url(#n)" transform="matrix(1.25 0 0 -1.25 -99.924 679.85)"/><path d="M155.625 358.392v-.006.006" fill="url(#o)" transform="matrix(1.25 0 0 -1.25 -99.924 679.85)"/><path d="M292.89 529.987a5.98 5.98 0 0 1-2.18-4.536l-.013-.6-2.405-120.034 1.227-22.19 1.19-21.593c.04-3.197 2.68-5.835 5.9-5.835 3.2 0 5.84 2.64 5.89 5.88v-.05l2.62 43.79-2.626 120.65a5.977 5.977 0 0 1-2.89 5.026 5.774 5.774 0 0 1-3 .848 5.833 5.833 0 0 1-3.72-1.345" fill="url(#p)" transform="matrix(1.25 0 0 -1.25 -99.924 679.85)"/><path d="M83.122 429.084l-3.183-24.18 3.18-23.768c.12-1.002.84-1.702 1.74-1.702.882 0 1.6.694 1.742 1.693l3.77 23.777-3.77 24.19c-.144.996-.86 1.694-1.743 1.694-.908 0-1.626-.702-1.746-1.704" fill="url(#q)" transform="matrix(1.25 0 0 -1.25 -99.924 679.85)"/><path d="M99.156 444.003l-4.282-39.1 4.282-38.237c.123-1.023.885-1.765 1.81-1.765.918 0 1.66.73 1.807 1.76l4.872 38.25-4.87 39.1c-.15 1.04-.89 1.76-1.81 1.76-.924 0-1.686-.74-1.81-1.76" fill="url(#r)" transform="matrix(1.25 0 0 -1.25 -99.924 679.85)"/><path d="M115.888 451.292l-4.063-46.392 4.063-44.7c.115-1.242 1.033-2.14 2.183-2.14 1.13 0 2.05.898 2.18 2.132l4.62 44.708-4.61 46.394c-.135 1.24-1.05 2.136-2.18 2.136-1.15 0-2.067-.9-2.182-2.138" fill="url(#s)" transform="matrix(1.25 0 0 -1.25 -99.924 679.85)"/><path d="M312.71 537.48c-4.042-1.566-5.114-3.17-5.153-6.296V361.21c.042-3.277 2.586-5.824 5.785-6.144.136-.014 148.45 0 148.45 0 29.576 0 53.55 23.71 53.55 53.29s-23.974 53.558-53.55 53.558a53.493 53.493 0 0 1-20.715-4.16c-4.263 48.264-44.735 86.127-94.106 86.127-12.08 0-23.85-2.37-34.26-6.4" fill="url(#t)" transform="matrix(1.25 0 0 -1.25 -99.924 679.85)"/><g clip-path="url(#u)" transform="matrix(1.25 0 0 -1.25 -99.924 679.85)"><path d="M469.83 306.322h-3.896v24.21h4.186c8.363 0 11.815-4.01 11.815-12.106 0-7.24-3.784-12.104-12.105-12.104m.575 31.907h-12.39v-39.6h11.815c10.198 0 20.255 5.88 20.255 19.79 0 14.484-8.363 19.8-19.68 19.8m-30.212-22.235c0-6.33-3.1-10.24-8.138-10.24-5.04 0-8.093 4.02-8.093 10.35v22.124h-7.92v-22.23c0-11.537 6.452-17.986 16.013-17.986 10.066 0 16.066 6.623 16.066 18.095v22.124h-7.92V315.99zm-49.153-10.12c-6.397 0-9.055 5.483-9.055 12.553 0 7.075 2.658 12.557 9.055 12.557 6.387 0 9.04-5.48 9.04-12.553 0-7.07-2.653-12.553-9.04-12.553m0 32.977c-10.81 0-17.196-8.37-17.196-20.425 0-12.053 6.387-20.417 17.196-20.417 10.802 0 17.198 8.36 17.198 20.414 0 12.054-6.396 20.422-17.198 20.422m-36.742-.62h-7.924v-39.6h23.81v7.806h-15.886v31.794zm-29.373-7.247c3.562 0 5.828-1.58 7.24-4.294l7.348 3.398c-2.487 5.147-7.01 8.766-14.477 8.766-10.347 0-17.587-8.37-17.587-20.426 0-12.496 6.94-20.415 17.3-20.415 7.18 0 11.93 3.335 14.65 8.94l-6.68 3.962c-2.09-3.512-4.187-5.04-7.75-5.04-5.943 0-9.396 5.43-9.396 12.553 0 7.35 3.406 12.556 9.34 12.556m-44.744-24.66h-3.905v24.207h4.194c8.37 0 11.82-4.007 11.82-12.103 0-7.24-3.792-12.106-12.107-12.106m.562 31.906h-12.38v-39.6h11.82c10.18 0 20.253 5.885 20.253 19.795 0 14.488-8.376 19.8-19.69 19.8m-30.37-16.744c0-2.204.11-7.18.11-8.656-.505 1.016-1.81 3.003-2.767 4.474l-14.033 20.93h-7.58v-39.6h7.81v17.423c0 2.207-.117 7.185-.117 8.658.514-1.02 1.814-2.995 2.77-4.472l14.54-21.606h7.076v39.6h-7.81v-16.74zm-42.087-5.486c0-6.334-3.11-10.24-8.14-10.24-5.035 0-8.09 4.016-8.09 10.35v22.122h-7.92v-22.23c0-11.537 6.45-17.986 16.01-17.986 10.065 0 16.06 6.624 16.06 18.096v22.124h-7.92V315.98zm-49.15-10.124c-6.394 0-9.053 5.483-9.053 12.553 0 7.073 2.66 12.555 9.053 12.555 6.392 0 9.047-5.484 9.047-12.56 0-7.07-2.65-12.553-9.04-12.553m0 32.976c-10.804 0-17.196-8.37-17.196-20.422 0-12.05 6.39-20.415 17.196-20.415 10.8 0 17.193 8.365 17.193 20.418 0 12.057-6.4 20.425-17.2 20.425m-36.438-16.01c-6.28 1.477-7.974 2.266-7.974 4.753 0 1.75 1.41 3.565 5.653 3.565 3.623 0 6.45-1.477 8.995-4.075l5.715 5.544c-3.737 3.9-8.26 6.22-14.426 6.22-7.81 0-14.14-4.415-14.14-11.6 0-7.8 5.09-10.123 12.384-11.813 7.467-1.7 8.824-2.836 8.824-5.38 0-3-2.21-4.3-6.906-4.3-3.79 0-7.348 1.3-10.125 4.53l-5.712-5.092c2.997-4.412 8.77-7.183 15.384-7.183 10.804 0 15.558 5.088 15.558 12.613 0 8.6-6.958 10.747-13.238 12.22" fill="#ef381f"/></g></svg>