<svg xmlns="http://www.w3.org/2000/svg" viewBox="0 0 15.293333 26.613333" height="26.613" width="15.293"><defs><clipPath id="a"><path d="M0 199.586V0h114.707v199.586z"/></clipPath></defs><g clip-path="url(#a)" transform="matrix(.13333 0 0 -.13333 0 26.613)"><path d="M105.105 40.164c-3.71-1.766-10.808-3.31-16.1-3.445-15.978-.43-19.075 11.216-19.212 19.676v62.13h40.078v30.214H69.94v50.845H40.704c-.48 0-1.316-.426-1.433-1.496-1.71-15.56-8.995-42.87-39.27-53.78v-25.785h20.197V53.312C20.197 30.984 36.67-.73 80.15.012c14.667.254 30.956 6.394 34.56 11.687l-9.604 28.462" fill="#32405a"/></g></svg>