<svg xmlns="http://www.w3.org/2000/svg" viewBox="0 0 364.51999 296.23999" height="296.24" width="364.52"><defs><clipPath id="a"><path d="M0 2221.78V0h2733.9v2221.78z"/></clipPath></defs><g clip-path="url(#a)" transform="matrix(.13333 0 0 -.13333 0 296.24)"><path d="M2733.9 1958.77c-100.59-44.61-208.69-74.76-322.15-88.32 115.81 69.42 204.74 179.34 246.62 310.32-108.37-64.28-228.41-110.96-356.17-136.12-102.32 109.01-248.09 177.13-409.41 177.13-309.77 0-560.91-251.13-560.91-560.88 0-43.96 4.97-86.77 14.53-127.82-466.156 23.39-879.445 246.69-1156.09 586.03-48.28-82.84-75.933-179.18-75.933-281.98 0-194.59 99.02-366.27 249.52-466.85-91.942 2.91-178.427 28.14-254.052 70.15-.043-2.34-.05-4.68-.05-7.05 0-271.76 193.34-498.458 449.93-549.982-47.067-12.816-96.622-19.668-147.77-19.668-36.145 0-71.28 3.508-105.527 10.06 71.374-222.84 278.51-385 523.953-389.528C638.43 333.832 396.584 244.16 133.8 244.16c-45.273 0-89.92 2.65-133.8 7.828C248.223 92.852 543.047 0 859.797 0 1891.48 0 2455.64 854.672 2455.64 1595.86c0 24.32-.54 48.51-1.62 72.56 109.58 79.08 204.68 177.87 279.88 290.35" fill="#6aa9e0"/></g></svg>